<svg width="1200" height="1200" version="1.1" xmlns="http://www.w3.org/2000/svg" desc="Created with imagetracer.js version 1.2.6" ><path fill="rgb(4,4,4)" stroke="rgb(4,4,4)" stroke-width="1" opacity="0.00784313725490196" d="M 0 0 L 1200 0 L 1200 1200 L 0 1200 L 0 0 Z M 582 10 L 581 11 L 567 11 L 566 12 L 556 12 L 555 13 L 523 15 L 522 16 L 510 17 L 505 19 L 492 20 L 486 22 L 481 22 L 473 25 L 455 28 L 448 31 L 433 34 L 427 37 L 414 40 L 409 43 L 397 46 L 377 55 L 369 57 L 363 61 L 358 62 L 329 76 L 297 94 L 261 118 Q 258 117 259 120 Q 246 126 237 136 Q 234 135 235 138 L 203 164 L 200 168 L 198 169 L 169 199 L 167 200 L 139 234 L 136 235 L 120 258 Q 121 260 118 259 L 117 263 L 100 287 L 91 304 L 88 307 L 68 345 L 61 363 L 57 369 L 55 377 L 52 381 L 34 433 Q 32 447 27 459 L 25 473 L 22 481 L 19 505 L 15 522 L 13 555 L 11 566 L 11 581 L 10 582 L 10 618 L 10 620 L 11 621 L 11 634 L 11 636 L 13 646 L 13 658 L 14 659 L 16 686 L 19 696 L 22 720 L 25 728 L 27 742 Q 32 753 34 768 L 36 771 L 39 784 L 43 792 L 43 795 L 52 820 L 55 824 L 58 834 L 61 838 L 68 856 L 88 894 L 116 938 L 136 964 Q 135 966 138 965 L 164 998 L 168 1000 L 169 1003 L 199 1031 L 200 1034 L 234 1061 L 235 1064 L 258 1080 Q 260 1079 259 1082 L 263 1083 L 287 1100 L 329 1124 L 358 1138 L 363 1139 L 369 1143 L 377 1145 L 381 1148 Q 390 1149 397 1154 L 409 1157 L 414 1160 L 427 1163 L 433 1166 L 448 1169 L 455 1172 L 473 1175 L 481 1178 L 505 1181 L 509 1183 L 521 1184 L 522 1185 L 563 1188 L 567 1188 L 568 1189 L 582 1189 L 583 1190 L 634 1189 L 636 1189 L 646 1187 L 659 1187 L 660 1186 L 686 1184 L 696 1181 L 720 1178 L 728 1175 L 742 1173 Q 753 1168 768 1166 L 771 1164 L 784 1161 L 792 1157 L 795 1157 L 820 1148 L 824 1145 L 843 1138 L 851 1133 L 856 1132 L 894 1112 L 938 1084 L 964 1064 Q 966 1065 965 1063 L 998 1036 L 1000 1033 L 1003 1031 L 1031 1002 L 1034 1000 L 1055 976 L 1061 967 L 1064 965 L 1066 961 L 1088 932 L 1112 894 L 1132 856 L 1133 851 L 1143 832 L 1145 824 L 1148 820 Q 1149 810 1154 804 L 1157 792 L 1161 784 L 1164 771 L 1166 768 L 1179 715 L 1181 696 L 1183 691 L 1184 679 L 1185 678 L 1187 646 L 1189 635 L 1189 619 L 1190 618 L 1190 583 L 1189 582 L 1189 566 L 1187 555 L 1187 543 L 1186 542 L 1184 515 L 1181 505 L 1179 486 L 1175 473 L 1173 459 L 1161 417 L 1157 409 L 1157 406 L 1148 381 L 1145 377 L 1143 369 L 1139 363 L 1138 358 L 1133 350 L 1132 345 L 1124 329 L 1100 287 L 1084 263 L 1064 237 Q 1065 234 1063 235 L 1036 203 L 1033 200 L 1031 198 L 1002 169 L 1000 167 L 970 140 L 967 139 L 965 136 L 943 120 Q 940 121 941 118 L 894 88 L 856 68 L 851 67 L 832 57 L 824 55 L 820 52 L 795 43 L 792 43 L 784 39 L 771 36 L 768 34 Q 753 32 742 27 L 728 25 L 720 22 L 696 19 L 687 16 L 660 14 L 659 13 L 646 13 L 635 11 L 619 11 L 618 10 L 584 10 L 582 10 Z " /><path fill="rgb(75,75,75)" stroke="rgb(75,75,75)" stroke-width="1" opacity="0.996078431372549" d="M 581.5 10 L 583.5 10 L 617.5 10 L 618.5 11 L 634.5 11 L 645.5 13 L 658.5 13 L 659.5 14 L 686.5 16 L 695.5 19 L 719.5 22 L 727.5 25 L 741.5 27 Q 752.9 32.2 767.5 34 L 770.5 36 L 783.5 39 L 791.5 43 L 794.5 43 L 819.5 52 L 823.5 55 L 831.5 57 L 850.5 67 L 855.5 68 L 893.5 88 L 941 118 Q 939.9 120.7 942.5 120 L 965 136 L 966.5 139 L 969.5 140 L 1000 166.5 L 1001.5 169 L 1031 197.5 L 1032.5 200 L 1036 202.5 L 1062.5 235 Q 1064.8 234.3 1064 236.5 L 1084 262.5 L 1100 286.5 L 1124 328.5 L 1132 344.5 L 1133 349.5 L 1138 357.5 L 1139 362.5 L 1143 368.5 L 1145 376.5 L 1148 380.5 L 1157 405.5 L 1157 408.5 L 1161 416.5 L 1173 458.5 L 1175 472.5 L 1179 485.5 L 1181 504.5 L 1184 514.5 L 1186 541.5 L 1187 542.5 L 1187 554.5 L 1189 565.5 L 1189 581.5 L 1190 582.5 L 1190 617.5 L 1189 618.5 L 1189 634.5 L 1187 645.5 L 1185 677.5 L 1184 678.5 L 1183 690.5 L 1181 695.5 L 1179 714.5 L 1166 767.5 L 1164 770.5 L 1161 783.5 L 1157 791.5 L 1154 803.5 Q 1149.2 809.7 1148 819.5 L 1145 823.5 L 1143 831.5 L 1133 850.5 L 1132 855.5 L 1112 893.5 L 1088 931.5 L 1066 960.5 L 1064 965 L 1061 966.5 L 1055 975.5 L 1033.5 1000 L 1031 1001.5 L 1002.5 1031 L 1000 1032.5 L 997.5 1036 L 965 1062.5 Q 965.8 1064.8 963.5 1064 L 937.5 1084 L 893.5 1112 L 855.5 1132 L 850.5 1133 L 842.5 1138 L 823.5 1145 L 819.5 1148 L 794.5 1157 L 791.5 1157 L 783.5 1161 L 770.5 1164 L 767.5 1166 Q 752.8 1167.9 741.5 1173 L 727.5 1175 L 719.5 1178 L 695.5 1181 L 685.5 1184 L 659.5 1186 L 658.5 1187 L 645.5 1187 L 635.5 1189 L 633.5 1189 L 582.5 1190 L 581.5 1189 L 567.5 1189 L 566.5 1188 L 562.5 1188 L 521.5 1185 L 520.5 1184 L 508.5 1183 L 504.5 1181 L 480.5 1178 L 472.5 1175 L 454.5 1172 L 447.5 1169 L 432.5 1166 L 426.5 1163 L 413.5 1160 L 408.5 1157 L 396.5 1154 Q 390.3 1149.2 380.5 1148 L 376.5 1145 L 368.5 1143 L 362.5 1139 L 357.5 1138 L 328.5 1124 L 286.5 1100 L 262.5 1083 L 259 1082 Q 260.1 1079.3 257.5 1080 L 235 1064 L 233.5 1061 L 200 1033.5 L 198.5 1031 L 169 1002.5 L 167.5 1000 L 164 997.5 L 137.5 965 Q 135.3 965.8 136 963.5 L 116 937.5 L 88 893.5 L 68 855.5 L 61 837.5 L 58 833.5 L 55 823.5 L 52 819.5 L 43 794.5 L 43 791.5 L 39 783.5 L 36 770.5 L 34 767.5 Q 32.1 752.8 27 741.5 L 25 727.5 L 22 719.5 L 19 695.5 L 16 685.5 L 14 658.5 L 13 657.5 L 13 645.5 L 11 635.5 L 11 633.5 L 11 620.5 L 10 619.5 L 10 617.5 L 10 581.5 L 11 580.5 L 11 565.5 L 13 554.5 L 15 521.5 L 19 504.5 L 22 480.5 L 25 472.5 L 27 458.5 Q 32.2 447.2 34 432.5 L 52 380.5 L 55 376.5 L 57 368.5 L 61 362.5 L 68 344.5 L 88 306.5 L 91 303.5 L 100 286.5 L 117 262.5 L 118 259 Q 120.7 260.1 120 257.5 L 136 235 L 139 233.5 L 166.5 200 L 169 198.5 L 197.5 169 L 200 167.5 L 202.5 164 L 235 137.5 Q 234.3 135.3 236.5 136 Q 246.4 125.8 259 120 Q 257.9 117.3 260.5 118 L 296.5 94 L 328.5 76 L 357.5 62 L 362.5 61 L 368.5 57 L 376.5 55 L 396.5 46 L 408.5 43 L 413.5 40 L 426.5 37 L 432.5 34 L 447.5 31 L 454.5 28 L 472.5 25 L 480.5 22 L 485.5 22 L 491.5 20 L 504.5 19 L 509.5 17 L 521.5 16 L 522.5 15 L 554.5 13 L 555.5 12 L 565.5 12 L 566.5 11 L 580.5 11 L 581.5 10 Z M 582 29 L 581 30 L 562 30 L 554 32 L 524 34 L 523 35 L 510 36 L 506 38 L 488 40 L 432 54 L 430 56 L 420 58 L 412 62 L 400 65 L 393 69 L 385 71 L 360 82 L 312 107 L 258 143 L 235 162 Q 232 161 233 164 L 228 167 L 226 170 L 217 177 L 177 217 L 171 225 L 169 226 L 165 232 L 162 233 L 160 238 L 143 258 L 126 282 L 107 312 L 82 360 L 71 385 L 69 393 L 65 400 L 62 412 L 58 420 L 56 430 L 54 432 L 40 488 L 38 506 L 36 510 L 35 523 L 34 524 L 32 554 L 30 562 L 30 581 L 29 582 L 30 639 L 32 647 L 32 657 L 33 658 L 35 685 L 38 695 L 40 713 L 42 723 L 44 726 L 47 744 L 51 754 L 54 769 L 56 771 L 60 787 L 62 789 L 65 801 L 69 808 L 71 816 L 82 841 L 107 889 L 143 943 L 162 966 Q 161 968 164 967 L 168 973 Q 167 975 170 974 L 178 985 L 217 1023 L 225 1029 L 226 1032 L 232 1035 L 233 1038 L 238 1040 L 258 1057 L 282 1074 L 312 1093 L 360 1118 L 403 1136 L 430 1144 L 432 1146 L 488 1160 L 506 1162 L 509 1164 L 523 1165 L 524 1166 L 554 1168 L 561 1170 L 581 1170 L 582 1171 L 640 1170 L 647 1168 L 657 1168 L 658 1167 L 667 1167 L 668 1166 L 692 1164 L 696 1162 L 713 1160 L 731 1155 L 748 1152 L 754 1149 L 769 1146 L 771 1144 L 787 1140 L 789 1138 L 798 1136 L 841 1118 L 889 1093 L 943 1057 L 966 1038 Q 968 1039 967 1037 L 973 1032 Q 975 1033 974 1031 L 984 1023 L 1023 984 L 1029 976 L 1032 974 L 1035 969 L 1038 967 L 1040 963 L 1057 943 L 1074 919 L 1093 889 L 1118 841 L 1129 816 L 1131 808 L 1135 801 L 1144 771 L 1146 769 L 1160 713 L 1162 695 L 1164 692 L 1165 678 L 1166 677 L 1168 647 L 1170 639 L 1170 619 L 1171 618 L 1170 561 L 1168 554 L 1168 544 L 1167 543 L 1167 534 L 1166 533 L 1164 509 L 1162 506 L 1160 488 L 1158 478 L 1156 475 L 1153 457 L 1149 447 L 1146 432 L 1144 430 L 1140 414 L 1138 412 L 1135 400 L 1131 393 L 1129 385 L 1118 360 L 1093 312 L 1057 258 L 1038 235 Q 1039 232 1037 233 L 1033 228 L 1031 226 L 1023 217 L 984 177 L 976 171 L 974 169 L 969 165 L 967 162 L 919 126 L 889 107 L 828 76 L 808 69 L 801 65 L 789 62 L 787 60 L 771 56 L 769 54 L 762 52 L 754 51 L 744 47 L 731 45 L 713 40 L 696 38 L 692 36 L 669 34 L 668 33 L 658 33 L 657 32 L 647 32 L 639 30 L 582 29 Z " /><path fill="rgb(75,75,75)" stroke="rgb(75,75,75)" stroke-width="1" opacity="0.996078431372549" d="M 579.5 80 L 629.5 82 L 640.5 84 L 658.5 84 L 659.5 85 L 669 85 L 668 113 L 638 112 L 638 126.5 L 636 135.5 L 634 197 L 612.5 197 L 611.5 196 L 602 196 L 602 185.5 L 603 184.5 L 603 164.5 L 604 163.5 L 604 144.5 L 606 135.5 L 606 115.5 L 607 111.5 L 605.5 110 L 587.5 110 L 577 108 L 577 100.5 L 578 99.5 L 578 81.5 L 579.5 80 Z " /><path fill="rgb(75,75,75)" stroke="rgb(75,75,75)" stroke-width="1" opacity="0.996078431372549" d="M 545.5 81 L 549 82.5 L 551 96.5 L 554 104.5 L 557 124.5 L 560 132.5 L 562 147.5 L 564 157.5 L 566 160.5 L 567 170.5 L 572 192.5 L 570.5 194 L 543.5 199 L 541 193.5 L 540 183.5 L 538 180.5 L 536 164.5 L 532 150.5 L 531 141 Q 528.3 139.9 529 142.5 L 515 185 L 509.5 185 L 495.5 189 L 491.5 184 L 488 181.5 L 462.5 154 L 462 157.5 L 464 160.5 L 467 180.5 L 470 187.5 L 474 214 L 461.5 216 L 453.5 219 L 446 219 L 444 203.5 L 441 195.5 L 439 179.5 L 436 171.5 L 433 151.5 L 430 143.5 L 426 118.5 L 424 115.5 L 423 108 L 427.5 106 L 452.5 102 L 474 124.5 L 474 126 L 478 128.5 L 486.5 139 L 490 141.5 L 498.5 151 L 505 134.5 L 507 124.5 L 511 115.5 L 512 108.5 Q 517.3 99 519 87 L 537.5 84 L 545.5 81 Z " /><path fill="rgb(75,75,75)" stroke="rgb(75,75,75)" stroke-width="1" opacity="0.996078431372549" d="M 721.5 96 Q 756.4 98.6 773 119.5 L 776 125 L 773 126.5 L 771.5 129 L 767 131 L 764.5 135 L 755.5 142 L 749.5 134 L 738.5 126 L 728.5 123 L 720.5 123 L 716 125 L 714 130.5 L 718.5 136 L 745.5 153 L 755 162.5 Q 761.8 169.2 761 183.5 L 758 194.5 L 754 201.5 L 748.5 207 L 735.5 214 L 730.5 215 L 713.5 215 L 703.5 213 L 686.5 206 Q 674.4 199.6 666 189.5 L 663 185.5 L 676 173.5 Q 675.3 171.3 677.5 172 L 683.5 167 L 690.5 176 L 708.5 187 Q 715.2 189.3 725.5 188 L 729 185.5 L 729 178.5 L 723.5 173 L 697 156.5 Q 697.8 154.3 695.5 155 L 686 142.5 L 684 135.5 L 684 125.5 Q 686.3 111.8 695.5 105 L 705.5 99 L 721.5 96 Z " /><path fill="rgb(75,75,75)" stroke="rgb(75,75,75)" stroke-width="1" opacity="0.996078431372549" d="M 548.5 314 L 569.5 314 L 581.5 317 L 604.5 317 L 605.5 318 L 614.5 318 L 629.5 321 L 658.5 331 L 678.5 340 L 706.5 357 L 723 371.5 L 723 396.5 L 724 400.5 L 738.5 417 L 761.5 432 L 775.5 439 L 782.5 441 L 802.5 451 L 812.5 454 L 816.5 457 L 839.5 465 L 846.5 469 L 856.5 471 L 866 478.5 L 870 487.5 L 870 497.5 L 861 523.5 L 860 530.5 L 858 533.5 L 854 557.5 Q 850.4 562.9 850 571.5 Q 845.2 583.7 836.5 592 L 828.5 597 L 820.5 599 Q 813.7 606.7 803.5 611 L 795.5 614 L 783.5 615 L 772.5 613 L 754.5 618 L 715.5 618 Q 705 626 689.5 629 L 684 633.5 L 680 646.5 L 680 656.5 L 683 665.5 L 691 676.5 L 694 687 L 689 687.5 L 692 690.5 L 698 705.5 L 699 718 L 693.5 714 L 693 722.5 L 694 723.5 L 694 738.5 L 693 743 L 688 742 L 687 744.5 L 686 755.5 L 683 762 Q 680.3 763.1 681 760.5 L 678.5 757 L 676 767.5 L 671 777 L 668 777 L 668 772 L 666 772 L 650 798 Q 647.3 796.9 648 799.5 L 641.5 806 L 640 804.5 Q 640.9 799.1 638.5 797 L 624.5 813 L 617.5 818 L 613 819 L 614 813.5 L 610.5 816 Q 608.3 815.3 609 817.5 L 592.5 832 L 588 833 L 588 816.5 L 586 813.5 L 584 804.5 L 577 792.5 L 562 773.5 L 549 753.5 L 541 735.5 L 536 718.5 L 535 710.5 L 532.5 705 L 530 712.5 L 529 729.5 L 532 743.5 L 542 758.5 L 550 774.5 L 552 785.5 L 552 806.5 L 548 824.5 L 539.5 839 Q 536.2 840.1 537 837.5 L 536 836.5 L 534 819.5 L 528.5 804 Q 525.7 810.9 527 821 Q 523.2 821.8 522 818.5 Q 516 805 504.5 797 L 494.5 790 L 494 791.5 L 496 797 L 488.5 795 L 476 783.5 L 467.5 772 L 467 774.5 L 469 781.5 L 466.5 783 L 459 776.5 L 448 762.5 L 441 749.5 L 438 734.5 L 436 730.5 L 435 705.5 L 436 704.5 Q 434.8 695.6 437 692 Q 441.1 690.3 440 694.5 L 441 695.5 L 441 705.5 L 442 706.5 L 443 721.5 L 450 744.5 L 451.5 746 L 452 744.5 L 448 733.5 L 445 718.5 L 445 687.5 L 446 685 L 449 686.5 L 450 702.5 L 452 706.5 L 455 724.5 L 467 751.5 L 474.5 763 Q 476.8 763.8 476 761.5 L 474 750.5 L 475 748 Q 477.7 746.9 477 749.5 L 485 763.5 L 498 780 L 500.5 781 L 501 779.5 L 498 774.5 L 501.5 774 L 507 778.5 L 510.5 783 L 513 784.5 L 516.5 789 L 518.5 790 L 519 787.5 L 512 773.5 L 496 749.5 L 490 736.5 L 492.5 735 L 504.5 751 L 507 752.5 L 527 776.5 L 538 796.5 L 542.5 808 Q 545.7 799.7 544 786.5 L 542 776.5 L 537 765.5 L 523 746.5 L 518 736.5 L 516 728.5 L 514 726.5 L 511 713.5 L 490 666.5 L 485.5 650 L 484 671.5 L 485 672.5 L 485 681.5 L 482 679.5 L 480 671.5 L 478 669.5 L 474 650.5 L 471 643.5 L 468 627.5 L 468 613.5 L 474 589.5 L 453.5 575 L 431 564 L 431 582.5 L 430 586 Q 425.5 587.8 427 582.5 L 423 571 Q 419.7 569.7 421 574.5 L 418 584 Q 415.3 585.1 416 582.5 L 415 581.5 L 414 566.5 L 412 563.5 L 409 551.5 L 402.5 543 L 400 543.5 L 400 550.5 L 399 551.5 L 399 560.5 L 397.5 562 L 395 560.5 L 390.5 544 L 386 554.5 Q 375.8 566.8 369 582.5 L 373.5 579 Q 376.1 578.2 375 581.5 L 359 607 L 365 606 L 360 620.5 L 358 633.5 L 351 650 Q 358.1 650.3 361.5 646 L 364 648.5 L 364 663.5 L 366.5 674 L 369 667.5 L 371.5 665 L 374 669.5 L 377 685.5 L 379.5 689 L 386 666.5 L 386 662.5 L 389.5 656 L 392 657.5 L 392 681.5 Q 394.5 683 393 688.5 L 396 699.5 L 401 708 L 403 708 L 403 699.5 L 404.5 699 L 406 700.5 L 408 709.5 L 414 719.5 L 428 736.5 L 435 750.5 L 438 759.5 L 438 764.5 L 436.5 764 L 428 757.5 L 420 747 Q 417.3 748.1 418 745.5 L 414.5 741 L 414 742.5 L 415 747.5 L 412.5 749 L 399 731.5 L 387.5 708 L 387 717.5 L 388 721 L 385.5 721 L 379 714.5 L 370 701.5 L 363 688.5 L 360 678.5 L 357.5 676 L 356 682 L 352 682 L 352 680.5 L 350 676.5 L 348 661 L 338.5 661 L 330 659 L 330 655.5 L 344 641.5 L 350 627.5 L 348.5 627 L 341.5 630 L 340 627.5 L 343 623.5 L 352 598.5 L 354 596.5 L 357 586.5 L 360 582.5 L 363 572.5 L 367 566.5 L 372 553.5 L 374 526.5 L 376 517.5 L 380 509.5 L 380 500.5 Q 377.5 499 379 493.5 L 382 483.5 L 396 461 Q 393 462.3 394 458.5 L 402 444.5 L 402 442 L 396 442 L 396 439.5 L 406.5 428 L 409 426.5 Q 422.2 409 430 387 L 422.5 390 L 423 388.5 Q 427 376 436.5 369 L 445 364 Q 446.1 361.3 443.5 362 L 441 361 Q 438.9 355.8 443.5 357 L 471.5 349 L 496.5 334 L 522.5 321 L 548.5 314 Z M 552 321 L 545 323 L 540 323 Q 532 328 522 329 L 457 366 L 456 368 L 464 368 L 464 370 L 453 378 L 451 381 L 459 379 Q 462 378 461 381 L 445 393 L 436 404 L 437 405 L 443 401 L 434 430 L 431 435 Q 432 437 429 436 L 429 432 Q 421 447 410 459 Q 409 461 412 460 L 410 468 L 388 492 L 388 498 L 392 505 L 394 518 L 399 528 L 418 544 Q 420 543 419 546 L 423 547 L 449 565 L 466 573 L 489 591 L 490 594 Q 504 605 523 612 L 526 612 L 534 607 Q 544 595 548 577 L 548 533 L 547 532 L 547 522 Q 545 520 546 516 L 544 513 L 544 508 L 540 489 L 537 482 L 535 465 L 534 464 L 534 457 L 532 452 L 532 424 L 536 416 Q 535 413 538 414 L 540 421 L 547 394 L 555 377 L 563 370 Q 564 368 565 371 L 560 384 L 561 385 Q 566 378 575 375 L 575 378 L 564 394 L 557 409 L 551 425 L 550 438 L 549 439 L 550 457 L 553 465 L 556 459 Q 558 454 560 458 L 559 469 L 558 470 L 558 492 L 557 495 L 554 494 L 550 485 L 549 485 L 551 506 L 555 520 L 556 544 L 557 545 L 557 572 L 556 573 L 556 582 L 554 590 L 565 580 L 566 582 Q 567 586 564 588 L 565 590 L 573 576 L 583 563 L 591 556 L 594 555 L 593 561 Q 583 571 579 585 L 584 582 Q 586 583 585 581 L 597 570 Q 599 571 598 568 L 614 556 L 620 553 L 623 554 L 600 579 L 614 580 L 622 584 L 619 586 L 606 588 L 594 593 L 582 602 L 569 616 L 555 640 L 552 639 L 552 626 L 556 606 L 547 614 L 543 610 L 534 617 L 526 619 Q 516 618 509 615 L 484 599 L 480 617 L 480 632 L 482 632 L 488 620 Q 487 617 491 618 L 491 630 L 497 657 Q 502 664 503 675 L 510 688 L 510 678 L 511 677 L 511 664 L 512 659 L 515 655 L 516 657 L 516 667 L 517 668 L 519 689 L 522 699 L 531 666 L 536 656 L 541 651 L 543 651 L 539 663 L 538 677 L 537 678 L 538 684 L 543 667 L 547 664 L 546 670 L 546 679 L 545 680 L 546 696 L 550 687 Q 549 684 552 685 L 552 683 L 555 683 L 553 702 L 552 703 L 552 736 L 555 748 L 563 762 L 566 764 L 562 751 L 562 743 L 564 741 L 597 792 L 598 785 L 598 761 L 596 751 Q 595 746 599 748 L 604 757 L 608 771 L 608 795 L 605 804 L 606 807 L 624 781 L 628 778 L 628 785 L 627 786 L 628 790 L 630 788 L 633 780 L 634 771 L 636 766 L 636 758 L 638 756 L 640 760 L 646 779 L 649 769 L 649 737 L 647 731 Q 646 728 650 729 L 656 742 L 660 756 L 663 748 L 667 754 L 668 746 L 668 732 L 670 731 L 671 734 L 674 736 L 674 724 L 678 723 L 678 720 Q 673 714 672 705 Q 670 703 673 702 L 675 703 L 680 708 L 673 693 L 673 691 L 680 694 L 682 696 L 679 690 L 667 675 Q 665 669 670 670 L 672 672 L 668 665 L 664 653 L 663 640 L 654 650 Q 651 649 652 644 L 644 655 L 641 654 L 643 644 L 643 640 L 636 649 L 633 661 L 633 672 L 634 673 L 634 680 L 636 690 L 638 693 L 641 707 Q 645 710 645 715 L 641 714 L 633 705 L 628 693 L 626 683 L 627 655 L 632 635 L 632 632 L 626 639 Q 627 641 624 640 L 616 655 L 614 663 Q 612 667 610 664 L 611 659 L 611 654 L 605 666 L 603 674 L 603 693 L 605 699 Q 606 703 604 702 L 595 690 L 592 679 L 592 662 L 594 653 L 598 644 L 610 628 L 626 615 L 636 609 L 638 609 L 650 619 L 666 622 L 687 621 L 696 619 L 704 615 L 704 614 L 690 615 L 689 616 L 676 616 L 675 617 L 660 617 L 655 615 Q 649 613 648 607 Q 647 601 650 599 L 657 595 L 673 596 L 687 601 L 698 603 L 704 606 L 724 610 L 751 610 L 755 608 L 767 606 L 773 602 L 776 602 L 782 599 L 783 599 L 783 594 Q 786 593 785 597 L 787 596 Q 790 597 788 593 L 792 594 Q 794 590 799 589 L 803 583 L 801 582 L 803 579 L 807 581 Q 806 575 810 573 L 808 570 L 811 566 Q 814 565 812 571 L 814 572 L 813 567 L 814 562 L 819 555 L 819 553 L 811 557 L 813 553 L 820 547 L 820 544 Q 816 550 809 551 L 810 548 L 818 539 L 818 537 L 809 544 L 806 544 Q 807 539 811 537 L 812 533 L 815 531 L 815 530 L 813 530 L 804 536 L 810 527 L 811 525 L 805 528 L 804 526 L 807 522 Q 804 523 805 519 L 803 520 Q 799 521 800 519 L 804 516 L 804 514 L 800 514 L 800 513 L 797 510 L 796 508 L 799 500 L 795 501 L 793 502 L 795 497 L 793 493 L 795 489 L 794 487 L 798 484 L 799 480 L 802 479 L 801 476 Q 807 476 810 472 L 813 473 L 813 471 L 818 468 L 823 470 L 828 468 Q 823 464 816 464 L 814 462 L 801 458 L 797 455 L 774 446 L 753 435 L 736 424 L 718 406 L 702 378 L 694 367 L 696 364 L 704 369 L 712 380 L 715 381 L 714 375 L 696 358 L 677 347 L 654 338 L 652 336 L 631 329 L 618 326 L 613 326 L 609 324 L 587 324 L 586 325 L 567 321 L 552 321 Z M 842 477 L 832 479 L 820 484 L 814 491 Q 812 502 820 504 L 843 490 L 854 486 L 856 484 Q 860 485 859 482 L 850 477 L 842 477 Z M 846 510 L 835 519 Q 829 521 828 518 L 826 519 L 832 522 L 836 522 L 840 519 L 846 512 L 846 510 Z M 807 515 L 804 517 Q 806 520 807 517 L 807 515 Z M 386 516 L 384 519 L 385 524 L 386 519 L 386 516 Z M 850 542 L 849 545 L 850 545 L 850 542 Z M 846 550 L 846 552 L 848 553 Q 849 549 846 550 Z M 846 559 L 845 562 L 846 562 L 846 559 Z M 820 570 Q 819 573 822 572 Q 823 569 820 570 Z M 817 574 L 815 577 L 818 575 L 817 574 Z M 813 577 L 811 580 L 814 578 L 813 577 Z " /><path fill="rgb(75,75,75)" stroke="rgb(75,75,75)" stroke-width="1" opacity="0.996078431372549" d="M 544.5 359 Q 548.3 357.8 547 361.5 L 538.5 372 L 531.5 376 L 523.5 376 L 513.5 374 L 506.5 371 L 494.5 369 L 484 364.5 L 486.5 362 L 508.5 361 L 515.5 363 L 522.5 363 Q 523.8 360.8 528.5 362 L 530 366 L 544.5 359 Z " /><path fill="rgb(75,75,75)" stroke="rgb(75,75,75)" stroke-width="1" opacity="0.996078431372549" d="M 666.5 372 L 678.5 375 L 688 383.5 L 690 390.5 L 682.5 399 L 675.5 400 L 673.5 399 L 676 402.5 L 683 415.5 L 700 434.5 L 702 439 L 705 440.5 L 710 454.5 L 710 461.5 L 708 467 L 705 465.5 L 703 458.5 L 696.5 450 L 692.5 452 L 685.5 447 L 686 448.5 L 687 452 Q 683.2 453.5 684 450.5 L 679 447.5 L 678.5 446 L 678 448 Q 675.3 446.9 676 449.5 L 677 453 L 673 452 Q 674.1 449.3 671.5 450 Q 669.8 446.3 668 449.5 L 666.5 452 Q 663.2 453.1 664 450.5 L 661.5 449 L 656.5 450 L 652.5 449 L 650.5 450 L 647.5 447 L 637.5 442 L 622.5 441 L 621 439.5 Q 635.8 425.8 646.5 408 Q 648.8 408.8 648 406.5 L 657.5 400 L 670 397.5 Q 664.7 393.8 655.5 394 L 651 391.5 L 663.5 373 L 666.5 372 Z M 664 414 L 662 417 L 666 417 L 666 416 L 664 414 Z M 651 424 L 649 425 L 646 430 L 656 435 L 658 435 L 651 424 Z M 644 437 L 644 438 L 651 440 L 654 440 L 644 437 Z M 658 440 L 658 441 L 662 441 L 658 440 Z " /><path fill="rgb(75,75,75)" stroke="rgb(75,75,75)" stroke-width="1" opacity="0.996078431372549" d="M 490.5 386 Q 495.9 384.1 495 387.5 L 485 402.5 Q 483.8 412.3 479 418.5 L 476 431.5 L 474.5 433 Q 471.9 433.8 473 430.5 L 472 429.5 L 472 413.5 L 478 398.5 L 488.5 387 L 490.5 386 Z " /><path fill="rgb(75,75,75)" stroke="rgb(75,75,75)" stroke-width="1" opacity="0.996078431372549" d="M 533.5 396 L 534 402.5 L 527 431.5 L 527 463.5 L 528 466.5 L 525 468 L 520 442.5 L 520 426.5 L 523 411.5 L 531 397 L 533.5 396 Z " /><path fill="rgb(75,75,75)" stroke="rgb(75,75,75)" stroke-width="1" opacity="0.996078431372549" d="M 489 416 L 491 416.5 L 491 428.5 L 492 428.5 L 496.5 421 Q 499.3 420.4 498 426.5 L 497 427.5 L 497 448.5 L 498 448.5 L 500 427.5 L 504 417 L 507 418.5 L 503 435.5 L 502 461.5 L 503.5 468 L 505 457 Q 509.5 455.3 508 460.5 L 515 487.5 L 523.5 511 L 524 508.5 L 520 495.5 L 519 481.5 L 522 480 L 531 500.5 L 542 537.5 Q 540.8 542.3 543 543.5 L 543 569.5 L 540.5 573 L 538 568.5 L 538 557.5 L 535 541.5 L 527.5 521 L 527 526 L 524 524.5 L 495 465.5 L 489.5 444 L 487 455.5 L 485.5 457 L 483 454.5 L 482 449.5 L 482 432.5 L 484 425.5 L 489 416 Z " /><path fill="rgb(75,75,75)" stroke="rgb(75,75,75)" stroke-width="1" opacity="0.996078431372549" d="M 442.5 427 L 446 428.5 L 446 436.5 L 444 445.5 L 444 462.5 L 443 463.5 L 443 472.5 L 441.5 474 Q 439.3 474.8 440 472.5 L 436 461.5 L 435 446.5 Q 437.3 445.3 436 440.5 L 442.5 427 Z " /><path fill="rgb(75,75,75)" stroke="rgb(75,75,75)" stroke-width="1" opacity="0.996078431372549" d="M 461.5 442 Q 463.8 441.3 463 443.5 L 461 449.5 L 461 477.5 L 462 478.5 L 462 487.5 Q 465.4 492.3 465 500 Q 462.3 501.1 463 498.5 L 453 478.5 L 452 473.5 L 452 457.5 Q 454.4 447.4 461.5 442 Z " /><path fill="rgb(75,75,75)" stroke="rgb(75,75,75)" stroke-width="1" opacity="0.996078431372549" d="M 607.5 446 L 610 446 L 610 451 L 617.5 451 L 623.5 456 L 633 460 Q 631.9 462.7 634.5 462 L 639.5 468 Q 626.3 463.7 616.5 456 L 603.5 461 L 598 461 Q 599.6 450.9 607.5 446 Z " /><path fill="rgb(75,75,75)" stroke="rgb(75,75,75)" stroke-width="1" opacity="0.996078431372549" d="M 625 469 L 635.5 470 L 652 481.5 L 651.5 483 L 644.5 483 Q 632.5 479.5 625 471.5 L 625 469 Z " /><path fill="rgb(75,75,75)" stroke="rgb(75,75,75)" stroke-width="1" opacity="0.996078431372549" d="M 487 476 Q 490.7 474.5 490 477.5 L 492 486.5 L 492 494.5 L 494 502 L 490 502 L 490 500.5 Q 484.3 494.2 486 480.5 L 487 476 Z " /><path fill="rgb(75,75,75)" stroke="rgb(75,75,75)" stroke-width="1" opacity="0.996078431372549" d="M 415.5 480 L 417 480.5 L 417 500.5 L 418 500.5 Q 417.3 493.6 420 491 L 423 492.5 L 425 509.5 L 426.5 513 L 428 508 Q 432.5 506.3 431 511.5 L 439.5 530 L 443.5 528 L 449.5 536 L 450 533.5 Q 447.8 532.2 450.5 531 L 454 533.5 Q 461 542.8 461 558 Q 452.5 553.8 446.5 546 L 446 551 Q 442.2 551.8 441 548.5 L 431.5 532 L 429.5 537 L 427 535.5 L 419.5 521 L 419 524.5 L 420 528 L 414 523.5 L 408 510.5 L 408 497.5 L 412 484.5 L 415.5 480 Z " /><path fill="rgb(75,75,75)" stroke="rgb(75,75,75)" stroke-width="1" opacity="0.996078431372549" d="M 473.5 480 L 476 483.5 L 479 497.5 L 490 519.5 L 490 523 Q 486.2 524.5 487 521.5 L 483 518.5 L 478 511.5 L 472 498.5 L 471 481 L 473.5 480 Z " /><path fill="rgb(75,75,75)" stroke="rgb(75,75,75)" stroke-width="1" opacity="0.996078431372549" d="M 405.5 487 L 407 487.5 L 407 501.5 L 406 502.5 L 405 515.5 L 402.5 521 L 399 514.5 L 399 498.5 L 405.5 487 Z " /><path fill="rgb(75,75,75)" stroke="rgb(75,75,75)" stroke-width="1" opacity="0.996078431372549" d="M 449.5 507 L 451.5 507 L 459 514.5 Q 470.4 529.1 470 555.5 L 467.5 563 L 465 559.5 L 463 543.5 L 460 537.5 L 456 522.5 L 448 508.5 L 449.5 507 Z " /><path fill="rgb(75,75,75)" stroke="rgb(75,75,75)" stroke-width="1" opacity="0.996078431372549" d="M 740 557 L 743 558.5 Q 744.7 563.3 740.5 562 L 739 559.5 L 740 557 Z " /><path fill="rgb(75,75,75)" stroke="rgb(75,75,75)" stroke-width="1" opacity="0.996078431372549" d="M 724 559 L 729 559 L 729 562.5 L 725.5 564 Q 723 562.8 724 559 Z " /><path fill="rgb(75,75,75)" stroke="rgb(75,75,75)" stroke-width="1" opacity="0.996078431372549" d="M 806 559 Q 811.6 557.1 810 562 L 807.5 563 L 806 559 Z " /><path fill="rgb(75,75,75)" stroke="rgb(75,75,75)" stroke-width="1" opacity="0.996078431372549" d="M 799.5 560 L 802 561.5 L 800.5 565 L 798 563.5 L 799.5 560 Z " /><path fill="rgb(75,75,75)" stroke="rgb(75,75,75)" stroke-width="1" opacity="0.996078431372549" d="M 728.5 568 L 731 569.5 L 730 573 L 726 574 Q 725 569.3 728.5 568 Z " /><path fill="rgb(75,75,75)" stroke="rgb(75,75,75)" stroke-width="1" opacity="0.996078431372549" d="M 740 570 Q 744.6 568.8 746 571.5 L 743.5 575 L 740 573.5 L 740 570 Z " /><path fill="rgb(75,75,75)" stroke="rgb(75,75,75)" stroke-width="1" opacity="0.996078431372549" d="M 735.5 574 L 738 575.5 L 736.5 579 L 734 577.5 L 735.5 574 Z " /><path fill="rgb(75,75,75)" stroke="rgb(75,75,75)" stroke-width="1" opacity="0.996078431372549" d="M 398 575 L 401 575.5 L 401 593.5 L 398 604.5 L 390.5 616 Q 387.7 613.3 389 606.5 L 393 588.5 L 398 575 Z " /><path fill="rgb(75,75,75)" stroke="rgb(75,75,75)" stroke-width="1" opacity="0.996078431372549" d="M 459 590 Q 461.7 588.9 461 591.5 L 464 601.5 L 466 623.5 L 467 624.5 L 468 663.5 L 467 664.5 L 467 680.5 L 465.5 682 Q 462.9 682.8 464 679.5 L 460 664.5 L 456.5 629 L 454 645.5 L 447.5 658 L 446 657.5 L 446 639.5 L 439.5 645 L 434 647 L 434 642.5 L 439 631.5 L 445 607 Q 449.5 605.3 448 610.5 L 449 611.5 L 449.5 620 L 456 603.5 Q 456.3 595 459 590 Z " /><path fill="rgb(75,75,75)" stroke="rgb(75,75,75)" stroke-width="1" opacity="0.996078431372549" d="M 607.5 600 L 621.5 600 L 628 602 Q 629.5 605.8 626.5 605 L 594 612 L 594 609.5 L 600.5 603 L 607.5 600 Z " /><path fill="rgb(75,75,75)" stroke="rgb(75,75,75)" stroke-width="1" opacity="0.996078431372549" d="M 570.5 678 L 572 678.5 L 572 691.5 L 573 692.5 L 573 702.5 L 575 711.5 L 583 732 L 580.5 732 L 574 725.5 L 566 706.5 L 566 688.5 L 568 680.5 L 570.5 678 Z " /><path fill="rgb(75,75,75)" stroke="rgb(75,75,75)" stroke-width="1" opacity="0.996078431372549" d="M 132.5 679 Q 149.7 676.8 155 686.5 Q 160.3 691.7 160 702.5 L 158 709.5 L 150.5 718 L 141.5 722 L 134.5 722 L 125.5 718 L 121 713.5 Q 115.7 708.3 116 697.5 L 118 690.5 L 125.5 682 L 132.5 679 Z " /><path fill="rgb(75,75,75)" stroke="rgb(75,75,75)" stroke-width="1" opacity="0.996078431372549" d="M 1056.5 679 Q 1073.7 676.8 1079 686.5 Q 1084.3 691.7 1084 702.5 L 1082 709.5 L 1074.5 718 L 1065.5 722 L 1058.5 722 L 1049.5 718 L 1045 713.5 Q 1039.7 708.3 1040 697.5 L 1042 690.5 L 1049.5 682 L 1056.5 679 Z " /><path fill="rgb(75,75,75)" stroke="rgb(75,75,75)" stroke-width="1" opacity="0.996078431372549" d="M 565.5 720 L 568 721.5 Q 572.7 735.3 581 745.5 L 581 749 Q 576.3 748.6 574 744.5 L 566 730.5 L 564 721.5 L 565.5 720 Z " /><path fill="rgb(75,75,75)" stroke="rgb(75,75,75)" stroke-width="1" opacity="0.996078431372549" d="M 152.5 752 L 161.5 752 L 172 758.5 Q 177.1 764.4 177 775.5 L 176 778 L 171 778 L 171 768.5 L 169 763.5 L 165.5 760 Q 161.8 756.7 153.5 758 Q 147 759.5 144 764.5 Q 141.3 768.3 143 776.5 L 147.5 783 L 155 781 L 153 772.5 L 156.5 771 L 159 773.5 L 161 783.5 L 159.5 785 L 145.5 789 Q 136 783 138 765.5 Q 139.5 759 144.5 756 L 152.5 752 Z " /><path fill="rgb(75,75,75)" stroke="rgb(75,75,75)" stroke-width="1" opacity="0.996078431372549" d="M 1032.5 753 L 1036 756.5 L 1035 757.5 Q 1028.3 761.8 1030 774.5 L 1036.5 782 Q 1041.3 784.2 1049.5 783 L 1056 777.5 L 1059 767.5 L 1056.5 765 L 1050.5 764 L 1048 771 Q 1044.2 772 1043 769.5 L 1047.5 757 Q 1057.8 758.2 1064 763.5 L 1064 771.5 L 1057.5 784 Q 1052.6 791.1 1038.5 789 Q 1031.1 786.4 1027 780.5 L 1024 774.5 L 1024 766.5 L 1028 757.5 L 1032.5 753 Z " /><path fill="rgb(75,75,75)" stroke="rgb(75,75,75)" stroke-width="1" opacity="0.996078431372549" d="M 1019.5 787 L 1052 801.5 Q 1052.8 805.3 1050.5 806 L 1020 812.5 L 1027.5 817 Q 1037 818.9 1043 823 L 1041.5 827 L 1037.5 827 L 1032.5 825 L 1008 813.5 L 1009 809 L 1039 803 Q 1040.3 800 1036.5 801 L 1017 791.5 Q 1015.5 787.1 1018.5 788 L 1019.5 787 Z " /><path fill="rgb(75,75,75)" stroke="rgb(75,75,75)" stroke-width="1" opacity="0.996078431372549" d="M 164.5 788 Q 181 786 186 795.5 L 189 800.5 L 190 809.5 Q 188 819.5 180.5 824 Q 176.2 827.2 168.5 827 Q 157.6 825.4 153 817.5 Q 149.4 812.1 151 801.5 L 157.5 792 L 164.5 788 Z M 167 794 L 162 796 L 156 804 L 156 812 L 159 817 L 167 821 Q 175 822 180 818 L 184 811 L 184 805 L 181 797 L 176 794 L 167 794 Z " /><path fill="rgb(75,75,75)" stroke="rgb(75,75,75)" stroke-width="1" opacity="0.996078431372549" d="M 1004.5 820 L 1037 836.5 L 1036 840 L 1029.5 839 L 1004.5 826 L 1002 826 L 1004.5 820 Z " /><path fill="rgb(75,75,75)" stroke="rgb(75,75,75)" stroke-width="1" opacity="0.996078431372549" d="M 183.5 826 L 192.5 826 L 203 832.5 Q 208.7 837.3 208 848.5 Q 206.1 857.6 199.5 862 L 191.5 865 L 184.5 865 L 175 861 L 169 850.5 L 169 840.5 Q 171.1 832.6 177.5 829 L 183.5 826 Z M 185 832 L 181 834 L 174 843 L 174 849 L 177 855 Q 180 859 187 860 Q 193 860 197 857 L 202 850 Q 203 841 200 838 Q 197 830 185 832 Z " /><path fill="rgb(75,75,75)" stroke="rgb(75,75,75)" stroke-width="1" opacity="0.996078431372549" d="M 998.5 832 L 1000.5 832 L 1030 849.5 Q 1030.5 853.5 1027.5 854 L 1012.5 855 L 1011.5 856 L 1001.5 856 L 996 857.5 L 1019 870.5 L 1018 874 L 1014.5 874 L 985 858 Q 984 854.2 986.5 853 L 1000.5 852 L 1005.5 850 Q 1013.2 851.2 1017 848.5 L 1014.5 846 L 996 837 L 998.5 832 Z " /><path fill="rgb(75,75,75)" stroke="rgb(75,75,75)" stroke-width="1" opacity="0.996078431372549" d="M 214.5 859 Q 218.3 858.3 219 860.5 L 225 870.5 L 226 880.5 L 224 887 Q 221.3 885.9 222 888.5 L 217.5 893 L 211.5 896 L 201.5 896 L 193 891 L 187 881.5 L 186 877 L 199 870 Q 197.9 867.3 200.5 868 L 214.5 859 Z M 214 866 L 193 879 L 197 887 L 202 890 Q 211 892 215 888 L 220 881 L 220 874 L 217 868 L 214 866 Z " /><path fill="rgb(75,75,75)" stroke="rgb(75,75,75)" stroke-width="1" opacity="0.996078431372549" d="M 979 864 L 987.5 867 L 1011 882.5 Q 1011.5 886.5 1008.5 887 L 978 867.5 L 979 864 Z " /><path fill="rgb(75,75,75)" stroke="rgb(75,75,75)" stroke-width="1" opacity="0.996078431372549" d="M 966 883 L 985.5 886 L 992.5 889 L 1002.5 890 L 1006 892.5 L 1004 896 Q 997.4 896.9 993.5 894 L 984 907.5 Q 988.3 910.3 989 916.5 L 985 919 L 964 886.5 L 966 883 Z M 974 890 L 981 902 L 987 894 L 986 892 L 974 890 Z " /><path fill="rgb(75,75,75)" stroke="rgb(75,75,75)" stroke-width="1" opacity="0.996078431372549" d="M 238.5 900 L 243.5 900 L 250 903 L 255 911.5 L 256 917 L 251.5 918 L 248 909.5 L 243.5 905 Q 238 904 237 907.5 L 237 912.5 L 242 924.5 L 242 927.5 L 237.5 934 L 231.5 936 L 226.5 935 L 222 931.5 L 220 928.5 Q 215.2 924.2 216 916 Q 219.8 915 221 917.5 L 222 922.5 L 228.5 930 L 232.5 931 Q 237 930 236 923.5 L 231 912.5 L 231 906.5 L 234.5 902 L 238.5 900 Z " /><path fill="rgb(75,75,75)" stroke="rgb(75,75,75)" stroke-width="1" opacity="0.996078431372549" d="M 944.5 912 L 953 916 Q 951.9 918.7 954.5 918 L 970.5 931 L 980.5 919 L 984 921.5 L 980 929 Q 977.3 927.9 978 930.5 L 971.5 938 L 969.5 938 L 943 915.5 L 944.5 912 Z " /><path fill="rgb(75,75,75)" stroke="rgb(75,75,75)" stroke-width="1" opacity="0.996078431372549" d="M 938.5 923 Q 948.3 922.7 951 929.5 L 952 933.5 L 950 939.5 L 942 948.5 L 947 952.5 L 948.5 955 L 952 957.5 L 951 962 L 948.5 962 L 922 937.5 L 933.5 925 L 938.5 923 Z M 940 928 L 937 929 L 934 933 L 929 937 L 939 945 L 946 936 L 944 929 L 940 928 Z " /><path fill="rgb(75,75,75)" stroke="rgb(75,75,75)" stroke-width="1" opacity="0.996078431372549" d="M 254.5 926 L 264.5 926 L 274 931 L 279 940.5 L 279 950.5 L 270.5 962 L 266.5 964 L 257.5 965 L 250.5 963 L 244 958 Q 240.2 953 240 943.5 Q 241.6 932.6 249.5 928 L 254.5 926 Z M 260 931 L 253 933 Q 247 937 245 944 Q 244 951 248 954 L 252 957 L 259 960 L 269 956 L 271 954 L 274 946 L 271 937 Q 267 932 260 931 Z " /><path fill="rgb(75,75,75)" stroke="rgb(75,75,75)" stroke-width="1" opacity="0.996078431372549" d="M 918.5 941 L 921 946.5 L 922 959.5 L 923 962 L 944 966 L 942.5 970 L 938.5 971 L 923 968 L 927 984.5 Q 925.7 988.8 921 988 L 918 967 L 898 963 Q 897.3 959.2 900.5 958 L 906.5 958 L 909.5 960 L 917 961 L 915 943 L 918.5 941 Z " /><path fill="rgb(75,75,75)" stroke="rgb(75,75,75)" stroke-width="1" opacity="0.996078431372549" d="M 289 950 L 294 952.5 Q 293.3 954.8 295.5 954 L 306 963.5 L 305 968 L 302.5 968 L 293.5 959 L 290.5 958 L 284 965.5 L 295 975.5 Q 295.8 977.8 293.5 977 L 290.5 978 L 280.5 969 L 269.5 981 L 267 980 L 266 976.5 L 280.5 960 Q 282.8 960.8 282 958.5 L 289 950 Z " /><path fill="rgb(75,75,75)" stroke="rgb(75,75,75)" stroke-width="1" opacity="0.996078431372549" d="M 893.5 964 L 897 966.5 Q 898.1 969.8 895.5 969 L 884 978.5 L 889.5 986 L 891.5 986 L 901.5 977 L 905 979.5 Q 906.1 982.8 903.5 982 L 893 990.5 L 900.5 999 L 907 996 L 908.5 993 L 915.5 989 Q 917.8 989.8 917 993.5 L 900.5 1007 L 879 982.5 L 877 978.5 L 893.5 964 Z " /><path fill="rgb(75,75,75)" stroke="rgb(75,75,75)" stroke-width="1" opacity="0.996078431372549" d="M 307 967 L 312.5 969 L 323.5 979 L 328 981 Q 326.5 984.7 329.5 984 L 333 986.5 L 324 1014 L 326 1014 Q 324.9 1011.3 327.5 1012 L 347.5 996 L 351 998.5 L 351 1002.5 L 348 1008.5 L 343 1026.5 L 349.5 1021 L 362.5 1010 L 367.5 1009 L 369 1013 L 339.5 1036 L 336 1034 L 340 1015.5 L 342 1013.5 L 344 1006.5 L 342.5 1006 L 322.5 1023 L 320.5 1023 L 318 1022 L 317 1018.5 L 327 986 L 324.5 986 L 317.5 981 L 297.5 1005 L 294 1002.5 L 296 997.5 L 313 976.5 L 306 970.5 L 307 967 Z " /><path fill="rgb(75,75,75)" stroke="rgb(75,75,75)" stroke-width="1" opacity="0.996078431372549" d="M 855.5 996 Q 865.5 995.5 870 1000.5 Q 869.3 1002.8 871.5 1002 Q 877.6 1006.9 876 1019.5 L 870.5 1029 L 862.5 1035 L 858.5 1036 L 838 1006.5 Q 844.4 998.9 855.5 996 Z M 857 1001 L 846 1006 L 846 1009 L 861 1029 L 865 1027 L 871 1020 Q 872 1012 869 1009 L 863 1002 L 857 1001 Z " /><path fill="rgb(75,75,75)" stroke="rgb(75,75,75)" stroke-width="1" opacity="0.996078431372549" d="M 832.5 1009 Q 835.8 1010.2 835 1014 L 820 1022.5 L 825.5 1030 L 839 1023 L 840 1029 L 828 1035.5 L 833.5 1045 L 850 1037 L 851 1042 L 831.5 1052 L 813 1020.5 L 832.5 1009 Z " /><path fill="rgb(75,75,75)" stroke="rgb(75,75,75)" stroke-width="1" opacity="0.996078431372549" d="M 382.5 1017 Q 387.3 1018.2 386 1025.5 L 384 1030.5 L 382 1057.5 L 380.5 1059 L 376 1056.5 L 377 1047.5 Q 372 1041.6 362.5 1040 L 356.5 1045 L 354.5 1045 L 351 1042.5 L 382.5 1017 Z M 378 1026 L 378 1028 L 368 1036 L 378 1041 L 379 1038 L 379 1029 L 380 1028 Q 381 1025 378 1026 Z " /><path fill="rgb(75,75,75)" stroke="rgb(75,75,75)" stroke-width="1" opacity="0.996078431372549" d="M 805.5 1024 L 809 1025.5 Q 810.5 1029.9 807.5 1029 L 794 1036.5 L 798.5 1045 Q 803.5 1040 812.5 1039 L 814 1043 L 801 1049.5 L 805.5 1059 L 810.5 1058 L 821.5 1052 L 824 1056.5 L 806.5 1066 L 802 1066 L 787 1033 L 805.5 1024 Z " /><path fill="rgb(75,75,75)" stroke="rgb(75,75,75)" stroke-width="1" opacity="0.996078431372549" d="M 402.5 1028 L 415.5 1034 L 420 1038.5 L 422 1045.5 L 417.5 1053 Q 414.6 1055.6 408.5 1055 L 407 1054.5 L 410 1063.5 L 411 1073 L 405 1070.5 L 403 1056.5 L 400.5 1052 L 397.5 1051 L 390.5 1064 L 386 1062 L 398 1034.5 L 402.5 1028 Z M 404 1035 L 400 1046 L 408 1050 L 414 1049 L 416 1046 L 415 1041 L 404 1035 Z " /><path fill="rgb(75,75,75)" stroke="rgb(75,75,75)" stroke-width="1" opacity="0.996078431372549" d="M 779.5 1036 L 782 1038.5 L 794 1070.5 Q 793 1073 788.5 1072 L 762.5 1055 L 764 1057.5 L 772 1080 L 768.5 1082 L 765 1077.5 L 763 1069.5 Q 757.9 1062.6 756 1052.5 L 754 1050.5 L 754 1047.5 Q 755 1045 759.5 1046 L 784.5 1063 L 785 1061.5 L 777 1043.5 L 776 1038 L 779.5 1036 Z " /><path fill="rgb(75,75,75)" stroke="rgb(75,75,75)" stroke-width="1" opacity="0.996078431372549" d="M 431.5 1041 L 452 1049.5 L 451 1054 L 434 1048 L 431 1054.5 L 431 1058 L 444 1062 Q 445 1065.8 442.5 1067 L 429.5 1062 L 424 1072.5 L 436.5 1077 L 441 1080.5 L 438.5 1084 L 421.5 1078 L 418 1075.5 L 418 1072.5 Q 422.8 1066.3 424 1056.5 L 426 1054.5 L 429 1043.5 L 431.5 1041 Z " /><path fill="rgb(75,75,75)" stroke="rgb(75,75,75)" stroke-width="1" opacity="0.996078431372549" d="M 734.5 1053 Q 738.9 1051.5 738 1054.5 L 739 1058 L 730 1060 L 738 1090.5 Q 736.8 1093 733 1092 L 724 1062 L 715.5 1065 L 713 1060.5 L 714.5 1059 Q 726 1057.5 734.5 1053 Z " /><path fill="rgb(75,75,75)" stroke="rgb(75,75,75)" stroke-width="1" opacity="0.996078431372549" d="M 473.5 1057 Q 487.5 1055.5 492 1063.5 Q 493.1 1066.8 490.5 1066 L 488.5 1067 L 481.5 1062 L 474.5 1062 Q 471 1063 472 1068.5 L 486 1079.5 Q 489.2 1081.8 488 1088.5 L 483.5 1094 L 475.5 1096 L 464.5 1092 L 460 1087.5 Q 459.3 1085.3 461.5 1086 Q 464 1081.5 466.5 1087 Q 470.6 1090.9 479.5 1090 Q 483 1089 482 1083.5 L 468 1072.5 Q 465 1070.5 466 1064.5 L 469 1059 L 473.5 1057 Z " /><path fill="rgb(75,75,75)" stroke="rgb(75,75,75)" stroke-width="1" opacity="0.996078431372549" d="M 708.5 1060 L 711 1062.5 L 712 1073 Q 706.8 1075.1 708 1070.5 L 705 1062.5 L 708.5 1060 Z " /><path fill="rgb(75,75,75)" stroke="rgb(75,75,75)" stroke-width="1" opacity="0.996078431372549" d="M 499 1063 Q 502.8 1062 504 1064.5 L 502 1078 L 518.5 1082 L 522 1068 L 527 1068 L 527 1072.5 L 524 1084.5 L 524 1089.5 L 522 1092.5 L 521 1102.5 L 519.5 1104 Q 515.8 1104.8 515 1102.5 L 518 1087.5 L 516.5 1086 L 501 1084 L 498 1094.5 L 498 1098.5 L 496.5 1100 Q 492.8 1100.8 492 1098.5 L 493 1097.5 L 496 1074.5 L 498 1071.5 L 499 1063 Z " /><path fill="rgb(75,75,75)" stroke="rgb(75,75,75)" stroke-width="1" opacity="0.996078431372549" d="M 697.5 1063 L 700 1064.5 L 701 1075.5 L 704 1084.5 L 706 1100 L 701.5 1101 L 678 1078.5 L 683 1104 L 678 1105 L 676 1100.5 L 671 1069.5 Q 671.8 1067.3 675.5 1068 L 687 1078.5 L 689.5 1082 L 697.5 1089 L 698 1083.5 L 694 1064 L 697.5 1063 Z " /><path fill="rgb(75,75,75)" stroke="rgb(75,75,75)" stroke-width="1" opacity="0.996078431372549" d="M 546.5 1070 Q 561.3 1069.7 566 1079.5 Q 570 1084.5 568 1095.5 Q 566.2 1102.7 560.5 1106 Q 555.7 1110.7 544.5 1109 Q 537.5 1107.5 534 1102.5 Q 528 1097.5 530 1084.5 Q 532.1 1076.6 538.5 1073 L 546.5 1070 Z M 546 1076 L 541 1078 L 536 1086 L 537 1098 L 546 1104 Q 553 1105 557 1102 L 561 1098 L 563 1091 L 560 1081 Q 556 1075 546 1076 Z " /><path fill="rgb(75,75,75)" stroke="rgb(75,75,75)" stroke-width="1" opacity="0.996078431372549" d="M 644.5 1071 L 654.5 1071 L 664 1076 L 668 1083.5 L 669 1092.5 L 668 1096.5 L 661.5 1105 L 655.5 1108 L 641.5 1109 L 640 1107.5 L 637 1072 L 643.5 1072 L 644.5 1071 Z M 643 1077 L 644 1083 L 644 1091 L 645 1092 Q 644 1100 646 1104 L 658 1101 Q 662 1098 663 1093 Q 663 1084 660 1080 L 655 1077 L 643 1077 Z " /><path fill="rgb(75,75,75)" stroke="rgb(75,75,75)" stroke-width="1" opacity="0.996078431372549" d="M 574 1074 L 579.5 1074 L 580 1074.5 L 580 1101.5 L 582.5 1105 Q 586 1107.5 593.5 1106 L 598 1098.5 L 598 1075.5 L 599.5 1074 Q 604 1073.5 604 1074.5 L 604 1097.5 L 603 1102.5 L 598.5 1109 L 592.5 1112 L 584.5 1112 L 577 1106.5 L 574 1101.5 L 574 1074 Z " /><path fill="rgb(75,75,75)" stroke="rgb(75,75,75)" stroke-width="1" opacity="0.996078431372549" d="M 611.5 1074 L 616 1074 L 616 1081.5 L 617 1082.5 L 617 1103.5 L 618 1106 Q 624.1 1104 634 1105 L 634 1110 L 621.5 1110 L 620.5 1111 L 613 1111 L 612 1105.5 L 612 1086.5 L 610 1075.5 L 611.5 1074 Z " /><path fill="rgb(53,53,53)" stroke="rgb(53,53,53)" stroke-width="1" opacity="1" d="M 581.5 29 L 638.5 30 L 646.5 32 L 656.5 32 L 657.5 33 L 667.5 33 L 668.5 34 L 691.5 36 L 695.5 38 L 712.5 40 L 730.5 45 L 743.5 47 L 753.5 51 L 761.5 52 L 768.5 54 L 770.5 56 L 786.5 60 L 788.5 62 L 800.5 65 L 807.5 69 L 827.5 76 L 888.5 107 L 918.5 126 L 967 162 L 968.5 165 L 974 168.5 L 975.5 171 L 983.5 177 L 1023 216.5 L 1030.5 226 L 1033 227.5 L 1036.5 233 Q 1038.8 232.3 1038 234.5 L 1057 257.5 L 1093 311.5 L 1118 359.5 L 1129 384.5 L 1131 392.5 L 1135 399.5 L 1138 411.5 L 1140 413.5 L 1144 429.5 L 1146 431.5 L 1149 446.5 L 1153 456.5 L 1156 474.5 L 1158 477.5 L 1160 487.5 L 1162 505.5 L 1164 508.5 L 1166 532.5 L 1167 533.5 L 1167 542.5 L 1168 543.5 L 1168 553.5 L 1170 560.5 L 1171 617.5 L 1170 618.5 L 1170 638.5 L 1168 646.5 L 1166 676.5 L 1165 677.5 L 1164 691.5 L 1162 694.5 L 1160 712.5 L 1146 768.5 L 1144 770.5 L 1135 800.5 L 1131 807.5 L 1129 815.5 L 1118 840.5 L 1093 888.5 L 1074 918.5 L 1057 942.5 L 1040 962.5 L 1038 967 L 1035 968.5 L 1032 974 L 1029 975.5 L 1023 983.5 L 983.5 1023 L 974 1030.5 Q 974.8 1032.8 972.5 1032 L 967 1036.5 Q 967.8 1038.8 965.5 1038 L 942.5 1057 L 888.5 1093 L 840.5 1118 L 797.5 1136 L 788.5 1138 L 786.5 1140 L 770.5 1144 L 768.5 1146 L 753.5 1149 L 747.5 1152 L 730.5 1155 L 712.5 1160 L 695.5 1162 L 691.5 1164 L 667.5 1166 L 666.5 1167 L 657.5 1167 L 656.5 1168 L 646.5 1168 L 639.5 1170 L 581.5 1171 L 580.5 1170 L 560.5 1170 L 553.5 1168 L 523.5 1166 L 522.5 1165 L 508.5 1164 L 505.5 1162 L 487.5 1160 L 431.5 1146 L 429.5 1144 L 402.5 1136 L 359.5 1118 L 311.5 1093 L 281.5 1074 L 257.5 1057 L 237.5 1040 L 233 1038 L 231.5 1035 L 226 1031.5 L 224.5 1029 L 216.5 1023 L 178 984.5 L 169.5 974 Q 167.3 974.8 168 972.5 L 163.5 967 Q 161.3 967.8 162 965.5 L 143 942.5 L 107 888.5 L 82 840.5 L 71 815.5 L 69 807.5 L 65 800.5 L 62 788.5 L 60 786.5 L 56 770.5 L 54 768.5 L 51 753.5 L 47 743.5 L 44 725.5 L 42 722.5 L 40 712.5 L 38 694.5 L 35 684.5 L 33 657.5 L 32 656.5 L 32 646.5 L 30 638.5 L 29 581.5 L 30 580.5 L 30 561.5 L 32 553.5 L 34 523.5 L 35 522.5 L 36 509.5 L 38 505.5 L 40 487.5 L 54 431.5 L 56 429.5 L 58 419.5 L 62 411.5 L 65 399.5 L 69 392.5 L 71 384.5 L 82 359.5 L 107 311.5 L 126 281.5 L 143 257.5 L 160 237.5 L 162 233 L 165 231.5 L 168.5 226 L 171 224.5 L 177 216.5 L 216.5 177 L 226 169.5 L 227.5 167 L 233 163.5 Q 232.3 161.3 234.5 162 L 257.5 143 L 311.5 107 L 359.5 82 L 384.5 71 L 392.5 69 L 399.5 65 L 411.5 62 L 419.5 58 L 429.5 56 L 431.5 54 L 487.5 40 L 505.5 38 L 509.5 36 L 522.5 35 L 523.5 34 L 553.5 32 L 561.5 30 L 580.5 30 L 581.5 29 Z M 580 80 L 578 82 L 578 100 L 577 101 L 577 108 L 588 110 L 606 110 L 607 112 L 606 116 L 606 136 L 604 145 L 604 164 L 603 165 L 603 185 L 602 186 L 602 196 L 612 196 L 613 197 L 634 197 L 636 136 L 638 127 L 638 112 L 668 113 L 669 85 L 660 85 L 659 84 L 641 84 L 630 82 L 580 80 Z M 546 81 L 538 84 L 519 87 Q 517 99 512 109 L 511 116 L 507 125 L 505 135 L 499 151 L 490 142 L 487 139 L 478 129 L 474 126 L 474 125 L 453 102 L 428 106 L 423 108 L 424 116 L 426 119 L 430 144 L 433 152 L 436 172 L 439 180 L 441 196 L 444 204 L 446 219 L 454 219 L 462 216 L 474 214 L 470 188 L 467 181 L 464 161 L 462 158 L 463 154 L 488 182 L 492 184 L 496 189 L 510 185 L 515 185 L 529 143 Q 528 140 531 141 L 532 151 L 536 165 L 538 181 L 540 184 L 541 194 L 544 199 L 571 194 L 572 193 L 567 171 L 566 161 L 564 158 L 562 148 L 560 133 L 557 125 L 554 105 L 551 97 L 549 83 L 546 81 Z M 722 96 L 706 99 L 696 105 Q 686 112 684 126 L 684 136 L 686 143 L 696 155 Q 698 154 697 157 L 724 173 L 729 179 L 729 186 L 726 188 Q 715 189 709 187 L 691 176 L 684 167 L 678 172 Q 675 171 676 174 L 663 186 L 666 190 Q 674 200 687 206 L 704 213 L 714 215 L 731 215 L 736 214 L 749 207 L 754 202 L 758 195 L 761 184 Q 762 169 755 163 L 746 153 L 719 136 L 714 131 L 716 125 L 721 123 L 729 123 L 739 126 L 750 134 L 756 142 L 765 135 L 767 131 L 772 129 L 773 127 L 776 125 L 773 120 Q 756 99 722 96 Z M 549 314 L 523 321 L 497 334 L 472 349 L 444 357 Q 439 356 441 361 L 444 362 Q 446 361 445 364 L 437 369 Q 427 376 423 389 L 423 390 L 430 387 L 431 387 Q 422 409 409 427 L 407 428 L 396 440 L 396 442 L 402 442 L 402 445 L 394 459 Q 393 462 396 461 L 382 484 L 379 494 Q 378 499 380 501 L 380 510 L 376 518 L 374 527 L 372 554 L 367 567 L 363 573 L 360 583 L 357 587 L 354 597 L 352 599 L 343 624 L 340 628 L 342 630 L 349 627 L 350 628 L 344 642 L 330 656 L 330 659 L 339 661 L 348 661 L 350 677 L 352 681 L 352 682 L 356 682 L 358 676 L 360 679 L 363 689 L 370 702 L 379 715 L 386 721 L 388 721 L 387 718 L 388 708 L 399 732 L 413 749 L 415 748 L 414 743 L 415 741 L 418 746 Q 417 748 420 747 L 428 758 L 437 764 L 438 765 L 438 760 L 435 751 L 428 737 L 414 720 L 408 710 L 406 701 L 405 699 L 403 700 L 403 708 L 401 708 L 396 700 L 393 689 Q 395 683 392 682 L 392 658 L 390 656 L 386 663 L 386 667 L 380 689 L 377 686 L 374 670 L 372 665 L 369 668 L 367 674 L 364 664 L 364 649 L 362 646 Q 358 650 351 650 L 358 634 L 360 621 L 365 606 L 359 607 L 375 582 Q 376 578 374 579 L 369 583 Q 376 567 386 555 L 391 544 L 395 561 L 398 562 L 399 561 L 399 552 L 400 551 L 400 544 L 403 543 L 409 552 L 412 564 L 414 567 L 415 582 L 416 583 Q 415 585 418 584 L 421 575 Q 420 570 423 571 L 427 583 Q 426 588 430 586 L 431 583 L 431 564 L 454 575 L 474 590 L 468 614 L 468 628 L 471 644 L 474 651 L 478 670 L 480 672 L 482 680 L 485 682 L 485 673 L 484 672 L 486 650 L 490 667 L 511 714 L 514 727 L 516 729 L 518 737 L 523 747 L 537 766 L 542 777 L 544 787 Q 546 800 543 808 L 538 797 L 527 777 L 507 753 L 505 751 L 493 735 L 490 737 L 496 750 L 512 774 L 519 788 L 519 790 L 517 789 L 513 785 L 511 783 L 507 779 L 502 774 L 498 775 L 501 780 L 501 781 L 498 780 L 485 764 L 477 750 Q 478 747 475 748 L 474 751 L 476 762 Q 477 764 475 763 L 467 752 L 455 725 L 452 707 L 450 703 L 449 687 L 446 685 L 445 688 L 445 719 L 448 734 L 452 745 L 452 746 L 450 745 L 443 722 L 442 707 L 441 706 L 441 696 L 440 695 Q 441 690 437 692 Q 435 696 436 705 L 435 706 L 436 731 L 438 735 L 441 750 L 448 763 L 459 777 L 467 783 L 469 782 L 467 775 L 468 772 L 476 784 L 489 795 L 496 797 L 494 792 L 495 790 L 505 797 Q 516 805 522 819 Q 523 822 527 821 Q 526 811 529 804 L 534 820 L 536 837 L 537 838 Q 536 840 540 839 L 548 825 L 552 807 L 552 786 L 550 775 L 542 759 L 532 744 L 529 730 L 530 713 L 533 705 L 535 711 L 536 719 L 541 736 L 549 754 L 562 774 L 577 793 L 584 805 L 586 814 L 588 817 L 588 833 L 593 832 L 609 818 Q 608 815 611 816 L 614 814 L 613 819 L 618 818 L 625 813 L 639 797 Q 641 799 640 805 L 642 806 L 648 800 Q 647 797 650 798 L 666 772 L 668 772 L 668 777 L 671 777 L 676 768 L 679 757 L 681 761 Q 680 763 683 762 L 686 756 L 687 745 L 688 742 L 693 743 L 694 739 L 694 724 L 693 723 L 694 714 L 699 718 L 698 706 L 692 691 L 689 688 L 694 687 L 691 677 L 683 666 L 680 657 L 680 647 L 684 634 L 690 629 Q 705 626 716 618 L 755 618 L 773 613 L 784 615 L 796 614 L 804 611 Q 814 607 821 599 L 829 597 L 837 592 Q 845 584 850 572 Q 850 563 854 558 L 858 534 L 860 531 L 861 524 L 870 498 L 870 488 L 866 479 L 857 471 L 847 469 L 840 465 L 817 457 L 813 454 L 803 451 L 783 441 L 776 439 L 762 432 L 739 417 L 724 401 L 723 397 L 723 372 L 707 357 L 679 340 L 659 331 L 630 321 L 615 318 L 606 318 L 605 317 L 582 317 L 570 314 L 549 314 Z M 398 575 L 393 589 L 389 607 Q 388 613 391 616 L 398 605 L 401 594 L 401 576 L 398 575 Z M 459 590 Q 456 595 456 604 L 450 620 L 449 612 L 448 611 Q 450 605 445 607 L 439 632 L 434 643 L 434 647 L 440 645 L 446 640 L 446 658 L 448 658 L 454 646 L 457 629 L 460 665 L 464 680 Q 463 683 466 682 L 467 681 L 467 665 L 468 664 L 467 625 L 466 624 L 464 602 L 461 592 Q 462 589 459 590 Z M 133 679 L 126 682 L 118 691 L 116 698 Q 116 708 121 714 L 126 718 L 135 722 L 142 722 L 151 718 L 158 710 L 160 703 Q 160 692 155 687 Q 150 677 133 679 Z M 1057 679 L 1050 682 L 1042 691 L 1040 698 Q 1040 708 1045 714 L 1050 718 L 1059 722 L 1066 722 L 1075 718 L 1082 710 L 1084 703 Q 1084 692 1079 687 Q 1074 677 1057 679 Z M 153 752 L 145 756 Q 140 759 138 766 Q 136 783 146 789 L 160 785 L 161 784 L 159 774 L 157 771 L 153 773 L 155 781 L 148 783 L 143 777 Q 141 768 144 765 Q 147 760 154 758 Q 162 757 166 760 L 169 764 L 171 769 L 171 778 L 176 778 L 177 776 Q 177 764 172 759 L 162 752 L 153 752 Z M 1033 753 L 1028 758 L 1024 767 L 1024 775 L 1027 781 Q 1031 786 1039 789 Q 1053 791 1058 784 L 1064 772 L 1064 764 Q 1058 758 1048 757 L 1043 770 Q 1044 772 1048 771 L 1051 764 L 1057 765 L 1059 768 L 1056 778 L 1050 783 Q 1041 784 1037 782 L 1030 775 Q 1028 762 1035 758 L 1036 757 L 1033 753 Z M 1020 787 L 1019 788 Q 1016 787 1017 792 L 1037 801 Q 1040 800 1039 803 L 1009 809 L 1008 814 L 1033 825 L 1038 827 L 1042 827 L 1043 823 Q 1037 819 1028 817 L 1020 813 L 1051 806 Q 1053 805 1052 802 L 1020 787 Z M 165 788 L 158 792 L 151 802 Q 149 812 153 818 Q 158 825 169 827 Q 176 827 181 824 Q 188 819 190 810 L 189 801 L 186 796 Q 181 786 165 788 Z M 1005 820 L 1002 826 L 1005 826 L 1030 839 L 1036 840 L 1037 837 L 1005 820 Z M 184 826 L 178 829 Q 171 833 169 841 L 169 851 L 175 861 L 185 865 L 192 865 L 200 862 Q 206 858 208 849 Q 209 837 203 833 L 193 826 L 184 826 Z M 999 832 L 996 837 L 1015 846 L 1017 849 Q 1013 851 1006 850 L 1001 852 L 987 853 Q 984 854 985 858 L 1015 874 L 1018 874 L 1019 871 L 996 858 L 1002 856 L 1012 856 L 1013 855 L 1028 854 Q 1031 853 1030 850 L 1001 832 L 999 832 Z M 215 859 L 201 868 Q 198 867 199 870 L 186 877 L 187 882 L 193 891 L 202 896 L 212 896 L 218 893 L 222 889 Q 221 886 224 887 L 226 881 L 225 871 L 219 861 Q 218 858 215 859 Z M 979 864 L 978 868 L 1009 887 Q 1011 887 1011 883 L 988 867 L 979 864 Z M 966 883 L 964 887 L 985 919 L 989 917 Q 988 910 984 908 L 994 894 Q 997 897 1004 896 L 1006 893 L 1003 890 L 993 889 L 986 886 L 966 883 Z M 239 900 L 235 902 L 231 907 L 231 913 L 236 924 Q 237 930 233 931 L 229 930 L 222 923 L 221 918 Q 220 915 216 916 Q 215 924 220 929 L 222 932 L 227 935 L 232 936 L 238 934 L 242 928 L 242 925 L 237 913 L 237 908 Q 238 904 244 905 L 248 910 L 252 918 L 256 917 L 255 912 L 250 903 L 244 900 L 239 900 Z M 945 912 L 943 916 L 970 938 L 972 938 L 978 931 Q 977 928 980 929 L 984 922 L 981 919 L 971 931 L 955 918 Q 952 919 953 916 L 945 912 Z M 939 923 L 934 925 L 922 938 L 949 962 L 951 962 L 952 958 L 949 955 L 947 953 L 942 949 L 950 940 L 952 934 L 951 930 Q 948 923 939 923 Z M 255 926 L 250 928 Q 242 933 240 944 Q 240 953 244 958 L 251 963 L 258 965 L 267 964 L 271 962 L 279 951 L 279 941 L 274 931 L 265 926 L 255 926 Z M 919 941 L 915 943 L 917 961 L 910 960 L 907 958 L 901 958 Q 897 959 898 963 L 918 967 L 921 988 Q 926 989 927 985 L 923 968 L 939 971 L 943 970 L 944 966 L 923 962 L 922 960 L 921 947 L 919 941 Z M 289 950 L 282 959 Q 283 961 281 960 L 266 977 L 267 980 L 270 981 L 281 969 L 291 978 L 294 977 Q 296 978 295 976 L 284 966 L 291 958 L 294 959 L 303 968 L 305 968 L 306 964 L 296 954 Q 293 955 294 953 L 289 950 Z M 894 964 L 877 979 L 879 983 L 901 1007 L 917 994 Q 918 990 916 989 L 909 993 L 907 996 L 901 999 L 893 991 L 904 982 Q 906 983 905 980 L 902 977 L 892 986 L 890 986 L 884 979 L 896 969 Q 898 970 897 967 L 894 964 Z M 307 967 L 306 971 L 313 977 L 296 998 L 294 1003 L 298 1005 L 318 981 L 325 986 L 327 986 L 317 1019 L 318 1022 L 321 1023 L 323 1023 L 343 1006 L 344 1007 L 342 1014 L 340 1016 L 336 1034 L 340 1036 L 369 1013 L 368 1009 L 363 1010 L 350 1021 L 343 1027 L 348 1009 L 351 1003 L 351 999 L 348 996 L 328 1012 Q 325 1011 326 1014 L 324 1014 L 333 987 L 330 984 Q 327 985 328 981 L 324 979 L 313 969 L 307 967 Z M 856 996 Q 844 999 838 1007 L 859 1036 L 863 1035 L 871 1029 L 876 1020 Q 878 1007 872 1002 Q 869 1003 870 1001 Q 865 996 856 996 Z M 833 1009 L 813 1021 L 832 1052 L 851 1042 L 850 1037 L 834 1045 L 828 1036 L 840 1029 L 839 1023 L 826 1030 L 820 1023 L 835 1014 Q 836 1010 833 1009 Z M 383 1017 L 351 1043 L 355 1045 L 357 1045 L 363 1040 Q 372 1042 377 1048 L 376 1057 L 381 1059 L 382 1058 L 384 1031 L 386 1026 Q 387 1018 383 1017 Z M 806 1024 L 787 1033 L 802 1066 L 807 1066 L 824 1057 L 822 1052 L 811 1058 L 806 1059 L 801 1050 L 814 1043 L 813 1039 Q 804 1040 799 1045 L 794 1037 L 808 1029 Q 811 1030 809 1026 L 806 1024 Z M 403 1028 L 398 1035 L 386 1062 L 391 1064 L 398 1051 L 401 1052 L 403 1057 L 405 1071 L 411 1073 L 410 1064 L 407 1055 L 409 1055 Q 415 1056 418 1053 L 422 1046 L 420 1039 L 416 1034 L 403 1028 Z M 780 1036 L 776 1038 L 777 1044 L 785 1062 L 785 1063 L 760 1046 Q 755 1045 754 1048 L 754 1051 L 756 1053 Q 758 1063 763 1070 L 765 1078 L 769 1082 L 772 1080 L 764 1058 L 763 1055 L 789 1072 Q 793 1073 794 1071 L 782 1039 L 780 1036 Z M 432 1041 L 429 1044 L 426 1055 L 424 1057 Q 423 1066 418 1073 L 418 1076 L 422 1078 L 439 1084 L 441 1081 L 437 1077 L 424 1073 L 430 1062 L 443 1067 Q 445 1066 444 1062 L 431 1058 L 431 1055 L 434 1048 L 451 1054 L 452 1050 L 432 1041 Z M 735 1053 Q 726 1058 715 1059 L 713 1061 L 716 1065 L 724 1062 L 733 1092 Q 737 1093 738 1091 L 730 1060 L 739 1058 L 738 1055 Q 739 1052 735 1053 Z M 474 1057 L 469 1059 L 466 1065 Q 465 1071 468 1073 L 482 1084 Q 483 1089 480 1090 Q 471 1091 467 1087 Q 464 1082 462 1086 Q 459 1085 460 1088 L 465 1092 L 476 1096 L 484 1094 L 488 1089 Q 489 1082 486 1080 L 472 1069 Q 471 1063 475 1062 L 482 1062 L 489 1067 L 491 1066 Q 493 1067 492 1064 Q 488 1055 474 1057 Z M 709 1060 L 705 1063 L 708 1071 Q 707 1075 712 1073 L 711 1063 L 709 1060 Z M 499 1063 L 498 1072 L 496 1075 L 493 1098 L 492 1099 Q 493 1101 497 1100 L 498 1099 L 498 1095 L 501 1084 L 517 1086 L 518 1088 L 515 1103 Q 516 1105 520 1104 L 521 1103 L 522 1093 L 524 1090 L 524 1085 L 527 1073 L 527 1068 L 522 1068 L 519 1082 L 502 1078 L 504 1065 Q 503 1062 499 1063 Z M 698 1063 L 694 1064 Q 693 1069 696 1072 L 698 1089 L 699 1090 L 690 1082 L 687 1079 L 676 1068 Q 672 1067 671 1070 L 676 1101 L 678 1105 L 683 1104 L 678 1079 L 702 1101 L 706 1100 L 704 1085 L 701 1076 L 700 1065 L 698 1063 Z M 547 1070 L 539 1073 Q 532 1077 530 1085 Q 528 1098 534 1103 Q 538 1107 545 1109 Q 556 1111 561 1106 Q 566 1103 568 1096 Q 570 1084 566 1080 Q 561 1070 547 1070 Z M 645 1071 L 644 1072 L 637 1072 L 640 1108 L 642 1109 L 656 1108 L 662 1105 L 668 1097 L 669 1093 L 668 1084 L 664 1076 L 655 1071 L 645 1071 Z M 574 1074 L 574 1102 L 577 1107 L 585 1112 L 593 1112 L 599 1109 L 603 1103 L 604 1098 L 604 1075 Q 604 1073 600 1074 L 598 1076 L 598 1099 L 594 1106 Q 586 1108 583 1105 L 580 1102 L 580 1075 L 580 1074 L 574 1074 Z M 612 1074 L 610 1076 L 612 1087 L 612 1106 L 613 1111 L 621 1111 L 622 1110 L 634 1110 L 634 1105 Q 624 1104 618 1106 L 617 1104 L 617 1083 L 616 1082 L 616 1074 L 612 1074 Z " /><path fill="rgb(53,53,53)" stroke="rgb(53,53,53)" stroke-width="1" opacity="1" d="M 551.5 321 L 566.5 321 L 585.5 325 L 586.5 324 L 608.5 324 L 612.5 326 L 617.5 326 L 630.5 329 L 651.5 336 L 653.5 338 L 676.5 347 L 695.5 358 L 714 374.5 L 715 381 L 712 379.5 L 703.5 369 L 695.5 364 L 694 366.5 L 702 377.5 L 718 405.5 L 735.5 424 L 752.5 435 L 773.5 446 L 796.5 455 L 800.5 458 L 813.5 462 L 815.5 464 Q 823.3 464.3 828 467.5 L 822.5 470 L 817.5 468 L 813 470.5 L 812.5 473 L 809.5 472 Q 807.1 475.6 801 475.5 L 802 478.5 L 799 480 L 797.5 484 L 794 486.5 L 795 488.5 L 793 492.5 L 795 496.5 L 793 501.5 L 794.5 501 L 799 500 L 796 507.5 L 796.5 510 L 800 512.5 L 800 514 L 804 514 Q 802.9 516.7 805.5 516 L 807 515.5 L 805.5 518 Q 804 514.5 802.5 517 L 800 518.5 Q 799.2 521.1 802.5 520 L 805 519 Q 803.5 522.7 806.5 522 L 804 525.5 L 804.5 528 L 811.5 524 L 810 526.5 L 804 536 L 812.5 530 L 814.5 530 L 814.5 531 L 812 532.5 L 811 536.5 Q 806.5 538.9 806 544 L 808.5 544 L 818.5 536 L 818 537.5 L 810 547.5 L 809 551 Q 815.9 549.8 819.5 544 L 820 546.5 L 813 552.5 L 811 557 Q 817 556 820.5 551 L 819 553.5 L 813 563.5 L 813 566.5 L 814 571.5 L 812 570.5 Q 813.9 565.1 810.5 566 L 808 569.5 L 810 572.5 Q 806.3 574.8 806.5 581 L 802.5 579 L 801 582 L 803 582.5 L 799 589 Q 793.9 589.5 791.5 594 L 788 593 Q 789.5 596.8 786.5 596 L 785 596.5 Q 786 592.8 783 594 L 783 599 L 781.5 599 L 775.5 602 L 772.5 602 L 766.5 606 L 754.5 608 L 750.5 610 L 723.5 610 L 703.5 606 L 697.5 603 L 686.5 601 L 672.5 596 L 656.5 595 L 650 598.5 Q 647.3 600.8 648 606.5 Q 649.4 612.6 654.5 615 L 659.5 617 L 674.5 617 L 675.5 616 L 688.5 616 L 689.5 615 L 703.5 614 L 703.5 615 L 695.5 619 L 686.5 621 L 665.5 622 L 649.5 619 L 637.5 609 L 635.5 609 L 625.5 615 L 610 628 L 598 643.5 L 594 652.5 L 592 661.5 L 592 678.5 L 595 689.5 L 603.5 702 Q 606.5 702.9 605 698.5 L 603 692.5 L 603 673.5 L 605 665.5 L 610.5 654 L 611 658.5 L 610 663.5 Q 612 667 614 662.5 L 616 654.5 L 624 640 Q 626.7 641.1 626 638.5 L 631.5 632 L 632 634.5 L 627 654.5 L 626 682.5 L 628 692.5 L 633 704.5 L 640.5 714 L 645 715 Q 644.7 709.6 641 706.5 L 638 692.5 L 636 689.5 L 634 679.5 L 634 672.5 L 633 671.5 L 633 660.5 L 636 648.5 L 642.5 640 L 643 643.5 L 641 653.5 L 643.5 655 L 651.5 644 Q 650.9 648.6 653.5 650 L 662.5 640 L 664 652.5 L 668 664.5 L 672 671.5 L 669.5 670 Q 664.9 668.6 667 674.5 L 679 689.5 L 682 695.5 L 679.5 694 L 672.5 691 L 673 692.5 L 681 708.5 L 674.5 703 L 672.5 702 Q 669.8 703.2 672 704.5 L 679 723.5 L 677.5 723 L 674 723.5 L 674 735.5 L 671 733.5 L 669.5 731 L 668 731.5 L 668 745.5 L 666.5 754 L 662.5 748 L 659.5 756 L 656 741.5 L 650 729 Q 646.3 727.5 647 730.5 L 649 736.5 L 649 768.5 L 645.5 779 L 640 759.5 L 637.5 756 L 636 757.5 L 636 765.5 L 634 770.5 L 633 779.5 L 630 787.5 L 627.5 790 L 627 785.5 L 628 784.5 L 628 778 L 624 780.5 L 605.5 807 L 605 803.5 L 608 794.5 L 608 770.5 L 604 756.5 L 599 748 Q 594.9 746.3 596 750.5 L 598 760.5 L 598 784.5 L 596.5 792 L 563.5 741 L 562 742.5 L 562 750.5 L 566 763.5 L 563 761.5 L 555 747.5 L 552 735.5 L 552 702.5 L 553 701.5 L 555 683 L 552 683 L 552 685 Q 549.3 683.9 550 686.5 L 545.5 696 L 545 679.5 L 546 678.5 L 546 669.5 L 547 664 L 543 666.5 L 537.5 684 L 537 677.5 L 538 676.5 L 539 662.5 L 543 651 L 540.5 651 L 536 655.5 L 531 665.5 L 521.5 699 L 519 688.5 L 517 667.5 L 516 666.5 L 516 656.5 L 514.5 655 L 512 658.5 L 511 663.5 L 511 676.5 L 510 677.5 L 509.5 688 L 503 674.5 Q 501.8 663.7 497 656.5 L 491 629.5 L 491 618 Q 487.2 616.5 488 619.5 L 481.5 632 L 480 631.5 L 480 616.5 L 484 599 L 508.5 615 Q 515.5 618.5 525.5 619 L 533.5 617 L 542.5 610 L 546.5 614 L 557 604.5 Q 551.1 618.1 552 638.5 L 554.5 640 L 569 615.5 L 581.5 602 L 593.5 593 L 605.5 588 L 618.5 586 L 622 583.5 L 613.5 580 L 600 578.5 L 623 553.5 L 619.5 553 L 613.5 556 L 598 568 Q 599.1 570.7 596.5 570 L 585 580.5 Q 585.8 582.8 583.5 582 L 578.5 586 L 579 584.5 Q 583.7 570.2 593 560.5 L 594 555 L 590.5 556 L 583 562.5 L 573 575.5 L 564.5 590 L 564 587.5 Q 566.6 586.1 566 581.5 L 564.5 580 L 554 589.5 L 556 581.5 L 556 572.5 L 557 571.5 L 557 544.5 L 556 543.5 L 555 519.5 L 551 505.5 L 549 484.5 L 550 484.5 L 554 494 L 556.5 495 L 558 491.5 L 558 469.5 L 559 468.5 L 560 457.5 Q 558 454 556 458.5 L 552.5 465 L 550 456.5 L 549 438.5 L 550 437.5 L 551 424.5 L 557 408.5 L 564 393.5 L 575 377.5 L 575 375 Q 565.8 377.6 560.5 385 L 560 383.5 L 565 370.5 Q 563.8 367.8 562.5 370 L 555 376.5 L 547 393.5 L 539.5 421 L 538 414 Q 535.3 412.9 536 415.5 L 532 423.5 L 532 451.5 L 534 456.5 L 534 463.5 L 535 464.5 L 537 481.5 L 540 488.5 L 544 507.5 L 544 512.5 L 546 515.5 Q 544.8 520.3 547 521.5 L 547 531.5 L 548 532.5 L 548 576.5 Q 544.1 595.3 534 607 L 525.5 612 L 522.5 612 Q 503.6 605.4 490 593.5 L 488.5 591 L 465.5 573 L 448.5 565 L 422.5 547 L 419 546 Q 420.1 543.3 417.5 544 L 399 527.5 L 394 517.5 L 392 504.5 L 388 497.5 L 388 491.5 L 410 467.5 L 412 460 L 407.5 463 L 410 459.5 L 422 443.5 L 428.5 432 L 429 436 Q 431.7 437.1 431 434.5 L 434 429.5 L 443 401 L 436.5 405 L 436 403.5 L 444.5 393 L 461 380.5 Q 461.8 377.9 458.5 379 L 450.5 381 L 452.5 378 L 464 369.5 L 463.5 368 L 455.5 368 L 456.5 366 L 521.5 329 Q 532 327.5 539.5 323 L 544.5 323 L 551.5 321 Z M 545 359 L 530 366 L 529 362 Q 524 361 523 363 L 516 363 L 509 361 L 487 362 L 484 365 L 495 369 L 507 371 L 514 374 L 524 376 L 532 376 L 539 372 L 547 362 Q 548 358 545 359 Z M 667 372 L 664 373 L 651 392 L 656 394 Q 666 394 672 398 L 672 399 L 670 398 L 658 400 L 648 407 Q 649 409 647 408 Q 636 426 621 440 L 623 441 L 638 442 L 648 447 L 651 450 L 653 449 L 657 450 L 662 449 L 664 451 Q 663 453 667 452 L 668 450 Q 670 446 672 450 Q 674 449 673 452 L 677 453 L 676 450 Q 675 447 678 448 L 679 446 L 679 448 L 684 451 Q 683 454 687 452 L 686 449 L 686 447 L 693 452 L 695 452 L 696 449 L 703 459 L 705 466 L 708 467 L 710 462 L 710 455 L 705 441 L 702 439 L 700 435 L 683 416 L 676 403 L 674 399 L 676 400 L 683 399 L 690 391 L 688 384 L 679 375 L 667 372 Z M 491 386 L 489 387 L 478 399 L 472 414 L 472 430 L 473 431 Q 472 434 475 433 L 476 432 L 479 419 Q 484 412 485 403 L 495 388 Q 496 384 491 386 Z M 534 396 L 531 397 L 523 412 L 520 427 L 520 443 L 525 468 L 528 467 L 527 464 L 527 432 L 534 403 L 534 396 Z M 489 416 L 484 426 L 482 433 L 482 450 L 483 455 L 486 457 L 487 456 L 490 444 L 495 466 L 524 525 L 527 526 L 526 521 L 527 519 L 535 542 L 538 558 L 538 569 L 541 573 L 543 570 L 543 544 Q 541 542 542 538 L 531 501 L 522 480 L 519 482 L 520 496 L 524 509 L 524 511 L 515 488 L 508 461 Q 510 455 505 457 L 504 468 L 502 462 L 503 436 L 507 419 L 504 417 L 500 428 L 498 449 L 497 449 L 497 428 L 498 427 Q 499 420 497 421 L 492 429 L 491 429 L 491 417 L 489 416 Z M 443 427 L 436 441 Q 437 445 435 447 L 436 462 L 440 473 Q 439 475 442 474 L 443 473 L 443 464 L 444 463 L 444 446 L 446 437 L 446 429 L 443 427 Z M 462 442 Q 454 447 452 458 L 452 474 L 453 479 L 463 499 Q 462 501 465 500 Q 465 492 462 488 L 462 479 L 461 478 L 461 450 L 463 444 Q 464 441 462 442 Z M 608 446 Q 600 451 598 461 L 604 461 L 617 456 Q 626 464 640 468 L 635 462 Q 632 463 633 460 L 624 456 L 618 451 L 610 451 L 610 446 L 608 446 Z M 625 469 L 625 472 Q 633 479 645 483 L 652 483 L 652 482 L 636 470 L 625 469 Z M 487 476 L 486 481 Q 484 494 490 501 L 490 502 L 494 502 L 492 495 L 492 487 L 490 478 Q 491 475 487 476 Z M 416 480 L 412 485 L 408 498 L 408 511 L 414 524 L 420 528 L 419 522 L 419 520 L 427 536 L 430 537 L 432 532 L 441 549 Q 442 552 446 551 L 447 546 Q 453 554 461 558 Q 461 543 454 534 L 451 531 Q 448 532 450 534 L 450 536 L 444 528 L 440 530 L 431 512 Q 433 506 428 508 L 427 513 L 425 510 L 423 493 L 420 491 Q 417 494 418 501 L 417 501 L 417 481 L 416 480 Z M 474 480 L 471 481 L 472 499 L 478 512 L 483 519 L 487 522 Q 486 524 490 523 L 490 520 L 479 498 L 476 484 L 474 480 Z M 406 487 L 399 499 L 399 515 L 403 521 L 405 516 L 406 503 L 407 502 L 407 488 L 406 487 Z M 450 507 L 448 509 L 456 523 L 460 538 L 463 544 L 465 560 L 468 563 L 470 556 Q 470 529 459 515 L 452 507 L 450 507 Z M 740 557 L 739 560 L 741 562 Q 745 563 743 559 L 740 557 Z M 724 559 Q 723 563 726 564 L 729 563 L 729 559 L 724 559 Z M 806 559 L 808 563 L 810 562 Q 812 557 806 559 Z M 800 560 L 798 564 L 801 565 L 802 562 L 800 560 Z M 729 568 Q 725 569 726 574 L 730 573 L 731 570 L 729 568 Z M 740 570 L 740 574 L 744 575 L 746 572 Q 745 569 740 570 Z M 736 574 L 734 578 L 737 579 L 738 576 L 736 574 Z M 608 600 L 601 603 L 594 610 L 594 612 L 627 605 Q 629 606 628 602 L 622 600 L 608 600 Z M 571 678 L 568 681 L 566 689 L 566 707 L 574 726 L 581 732 L 583 732 L 575 712 L 573 703 L 573 693 L 572 692 L 572 679 L 571 678 Z M 566 720 L 564 722 L 566 731 L 574 745 Q 576 749 581 749 L 581 746 Q 573 735 568 722 L 566 720 Z " /><path fill="rgb(53,53,53)" stroke="rgb(53,53,53)" stroke-width="1" opacity="1" d="M 663.5 414 L 666 415.5 L 666 417 L 662 417 L 663.5 414 Z " /><path fill="rgb(53,53,53)" stroke="rgb(53,53,53)" stroke-width="1" opacity="1" d="M 650.5 424 Q 653.3 431.3 659 435.5 L 657.5 435 Q 649.7 434.3 646 429.5 L 648.5 425 L 650.5 424 Z " /><path fill="rgb(53,53,53)" stroke="rgb(53,53,53)" stroke-width="1" opacity="1" d="M 677.5 434 L 676.5 436 L 677.5 434 Z " /><path fill="rgb(53,53,53)" stroke="rgb(53,53,53)" stroke-width="1" opacity="1" d="M 642.5 436 L 654 439.5 L 650.5 440 L 643.5 438 L 642.5 436 Z " /><path fill="rgb(53,53,53)" stroke="rgb(53,53,53)" stroke-width="1" opacity="1" d="M 674.5 436 L 673.5 438 L 670.5 439 L 670.5 438 L 674.5 436 Z " /><path fill="rgb(53,53,53)" stroke="rgb(53,53,53)" stroke-width="1" opacity="1" d="M 657.5 440 L 662 440.5 L 657.5 441 L 657.5 440 Z " /><path fill="rgb(53,53,53)" stroke="rgb(53,53,53)" stroke-width="1" opacity="1" d="M 841.5 477 L 849.5 477 L 859 482 Q 860.3 485.3 855.5 484 L 853.5 486 L 842.5 490 L 819.5 504 Q 812.4 501.6 814 490.5 L 819.5 484 L 831.5 479 L 841.5 477 Z " /><path fill="rgb(53,53,53)" stroke="rgb(53,53,53)" stroke-width="1" opacity="1" d="M 845.5 510 L 846 511.5 L 839.5 519 L 835.5 522 L 831.5 522 L 824 517.5 L 825.5 517 Q 827.8 520.2 834.5 519 L 845.5 510 Z " /><path fill="rgb(53,53,53)" stroke="rgb(53,53,53)" stroke-width="1" opacity="1" d="M 385.5 516 L 386 518.5 L 383.5 526 L 383 524.5 L 385.5 516 Z " /><path fill="rgb(53,53,53)" stroke="rgb(53,53,53)" stroke-width="1" opacity="1" d="M 849.5 542 L 850 544.5 L 848 545.5 L 849.5 542 Z " /><path fill="rgb(53,53,53)" stroke="rgb(53,53,53)" stroke-width="1" opacity="1" d="M 846 550 Q 849 548.8 848 552.5 L 846 551.5 L 846 550 Z " /><path fill="rgb(53,53,53)" stroke="rgb(53,53,53)" stroke-width="1" opacity="1" d="M 846.5 558 L 846 559.5 L 844.5 564 L 844 562.5 L 846.5 558 Z " /><path fill="rgb(53,53,53)" stroke="rgb(53,53,53)" stroke-width="1" opacity="1" d="M 820 570 Q 823 569 822 572 L 810.5 580 L 812.5 577 L 820 571.5 L 820 570 Z " /><path fill="rgb(53,53,53)" stroke="rgb(53,53,53)" stroke-width="1" opacity="1" d="M 841.5 571 L 841 572.5 L 838.5 577 L 839 575.5 L 841.5 571 Z " /><path fill="rgb(53,53,53)" stroke="rgb(53,53,53)" stroke-width="1" opacity="1" d="M 811.5 594 L 806.5 600 L 804.5 601 L 805.5 599 L 811.5 594 Z " /><path fill="rgb(53,53,53)" stroke="rgb(53,53,53)" stroke-width="1" opacity="1" d="M 166.5 794 L 175.5 794 L 181 797 L 184 804.5 L 184 810.5 L 179.5 818 Q 175.4 821.9 166.5 821 L 159 816.5 L 156 811.5 L 156 803.5 L 161.5 796 L 166.5 794 Z " /><path fill="rgb(53,53,53)" stroke="rgb(53,53,53)" stroke-width="1" opacity="1" d="M 184.5 832 Q 197.1 829.9 200 837.5 Q 203.3 841.2 202 849.5 L 196.5 857 Q 193.3 860.3 186.5 860 Q 179.9 859.1 177 854.5 L 174 848.5 L 174 842.5 L 180.5 834 L 184.5 832 Z " /><path fill="rgb(53,53,53)" stroke="rgb(53,53,53)" stroke-width="1" opacity="1" d="M 213.5 866 L 217 867.5 L 220 873.5 L 220 880.5 L 214.5 888 Q 210.5 891.5 201.5 890 L 197 886.5 L 193 879 L 213.5 866 Z " /><path fill="rgb(53,53,53)" stroke="rgb(53,53,53)" stroke-width="1" opacity="1" d="M 973.5 890 L 985.5 892 L 987 893.5 L 980.5 902 L 973.5 890 Z " /><path fill="rgb(53,53,53)" stroke="rgb(53,53,53)" stroke-width="1" opacity="1" d="M 939.5 928 L 944 929 L 946 935.5 L 938.5 945 L 929 936.5 L 934 932.5 L 936.5 929 L 939.5 928 Z " /><path fill="rgb(53,53,53)" stroke="rgb(53,53,53)" stroke-width="1" opacity="1" d="M 259.5 931 Q 267.3 931.7 271 936.5 L 274 945.5 L 271 953.5 L 268.5 956 L 258.5 960 L 251.5 957 L 248 953.5 Q 244.3 950.7 245 943.5 Q 247.3 936.8 252.5 933 L 259.5 931 Z " /><path fill="rgb(53,53,53)" stroke="rgb(53,53,53)" stroke-width="1" opacity="1" d="M 856.5 1001 L 862.5 1002 L 869 1008.5 Q 872.2 1011.8 871 1019.5 L 864.5 1027 L 860.5 1029 L 846 1008.5 L 846 1006 L 856.5 1001 Z " /><path fill="rgb(53,53,53)" stroke="rgb(53,53,53)" stroke-width="1" opacity="1" d="M 378 1026 Q 380.7 1024.9 380 1027.5 L 379 1028.5 L 379 1037.5 L 377.5 1041 L 368 1035.5 L 378 1028 L 378 1026 Z " /><path fill="rgb(53,53,53)" stroke="rgb(53,53,53)" stroke-width="1" opacity="1" d="M 404 1035 L 415 1040.5 L 416 1045.5 L 413.5 1049 L 407.5 1050 L 400 1045.5 L 404 1035 Z " /><path fill="rgb(53,53,53)" stroke="rgb(53,53,53)" stroke-width="1" opacity="1" d="M 545.5 1076 Q 556.3 1074.7 560 1080.5 L 563 1090.5 L 561 1097.5 L 556.5 1102 Q 553.2 1105.2 545.5 1104 L 537 1097.5 L 536 1085.5 L 540.5 1078 L 545.5 1076 Z " /><path fill="rgb(53,53,53)" stroke="rgb(53,53,53)" stroke-width="1" opacity="1" d="M 642.5 1077 L 654.5 1077 L 660 1080 Q 662.9 1084.3 663 1092.5 Q 661.8 1098.3 657.5 1101 L 646 1104 Q 644.3 1099.5 645 1091.5 L 644 1090.5 L 644 1082.5 L 642.5 1077 Z " /></svg>